$MeshFormat
4.1 0 8
$EndMeshFormat
$Entities
4 4 1 0
1 0 0 0 0 
2 1 0 0 0 
3 1 1 0 0 
4 0 1 0 0 
1 -9.999999994736442e-08 -1e-07 -1e-07 1.0000001 1e-07 1e-07 0 2 1 -2 
2 0.9999999000000001 -9.999999994736442e-08 -1e-07 1.0000001 1.0000001 1e-07 0 2 2 -3 
3 -9.999999994736442e-08 0.9999999000000001 -1e-07 1.0000001 1.0000001 1e-07 0 2 3 -4 
4 -1e-07 -9.999999994736442e-08 -1e-07 1e-07 1.0000001 1e-07 0 2 4 -1 
20 -9.999999994736442e-08 -9.999999994736442e-08 -1e-07 1.0000001 1.0000001 1e-07 1 1 4 1 2 3 4 
$EndEntities
$Nodes
9 357 1 357
0 1 0 1
1
0 0 0
0 2 0 1
2
1 0 0
0 3 0 1
3
1 1 0
0 4 0 1
4
0 1 0
1 1 0 15
5
6
7
8
9
10
11
12
13
14
15
16
17
18
19
0.06249999999999992 0 0
0.1249999999999998 0 0
0.1874999999999998 0 0
0.2499999999999998 0 0
0.3124999999999996 0 0
0.3749999999999994 0 0
0.4374999999999991 0 0
0.4999999999999988 0 0
0.5624999999999988 0 0
0.6249999999999988 0 0
0.687499999999999 0 0
0.7499999999999991 0 0
0.8124999999999993 0 0
0.8749999999999994 0 0
0.9374999999999997 0 0
1 2 0 15
20
21
22
23
24
25
26
27
28
29
30
31
32
33
34
1 0.06249999999999992 0
1 0.1249999999999998 0
1 0.1874999999999998 0
1 0.2499999999999998 0
1 0.3124999999999996 0
1 0.3749999999999994 0
1 0.4374999999999991 0
1 0.4999999999999988 0
1 0.5624999999999988 0
1 0.6249999999999988 0
1 0.687499999999999 0
1 0.7499999999999991 0
1 0.8124999999999993 0
1 0.8749999999999994 0
1 0.9374999999999997 0
1 3 0 15
35
36
37
38
39
40
41
42
43
44
45
46
47
48
49
0.9375000000000001 1 0
0.8750000000000001 1 0
0.8125000000000002 1 0
0.7500000000000002 1 0
0.6875000000000004 1 0
0.6250000000000007 1 0
0.5625000000000009 1 0
0.5000000000000011 1 0
0.4375000000000012 1 0
0.3750000000000012 1 0
0.312500000000001 1 0
0.2500000000000009 1 0
0.1875000000000007 1 0
0.1250000000000006 1 0
0.06250000000000033 1 0
1 4 0 15
50
51
52
53
54
55
56
57
58
59
60
61
62
63
64
0 0.9375000000000001 0
0 0.8750000000000001 0
0 0.8125000000000002 0
0 0.7500000000000002 0
0 0.6875000000000004 0
0 0.6250000000000007 0
0 0.5625000000000009 0
0 0.5000000000000011 0
0 0.4375000000000012 0
0 0.3750000000000012 0
0 0.312500000000001 0
0 0.2500000000000009 0
0 0.1875000000000007 0
0 0.1250000000000006 0
0 0.06250000000000033 0
2 20 0 293
65
66
67
68
69
70
71
72
73
74
75
76
77
78
79
80
81
82
83
84
85
86
87
88
89
90
91
92
93
94
95
96
97
98
99
100
101
102
103
104
105
106
107
108
109
110
111
112
113
114
115
116
117
118
119
120
121
122
123
124
125
126
127
128
129
130
131
132
133
134
135
136
137
138
139
140
141
142
143
144
145
146
147
148
149
150
151
152
153
154
155
156
157
158
159
160
161
162
163
164
165
166
167
168
169
170
171
172
173
174
175
176
177
178
179
180
181
182
183
184
185
186
187
188
189
190
191
192
193
194
195
196
197
198
199
200
201
202
203
204
205
206
207
208
209
210
211
212
213
214
215
216
217
218
219
220
221
222
223
224
225
226
227
228
229
230
231
232
233
234
235
236
237
238
239
240
241
242
243
244
245
246
247
248
249
250
251
252
253
254
255
256
257
258
259
260
261
262
263
264
265
266
267
268
269
270
271
272
273
274
275
276
277
278
279
280
281
282
283
284
285
286
287
288
289
290
291
292
293
294
295
296
297
298
299
300
301
302
303
304
305
306
307
308
309
310
311
312
313
314
315
316
317
318
319
320
321
322
323
324
325
326
327
328
329
330
331
332
333
334
335
336
337
338
339
340
341
342
343
344
345
346
347
348
349
350
351
352
353
354
355
356
357
0.5624999999999989 0.1082531754730546 0
0.8787408590474762 0.5688788296333868 0
0.4375000000000012 0.8917468245269454 0
0.11072493917578 0.4359051368937709 0
0.3098918535636471 0.1070150426096389 0
0.8917468245269455 0.3124999999999996 0
0.6871891340151978 0.8955068139135627 0
0.1182626851017918 0.669225973923011 0
0.1094851921887064 0.2033420655976694 0
0.8119703288398898 0.1058465056319792 0
0.1875000000000007 0.8917468245269449 0
0.879230463236312 0.8130906423764597 0
0.687411721473314 0.1078520638328755 0
0.6222382678779044 0.2148535068271494 0
0.4995397113129832 0.2162308769262824 0
0.5592159774975001 0.3228521478837691 0
0.4350399505186864 0.3232496269229517 0
0.4995115585047765 0.4327221170255846 0
0.6130571419252585 0.4327008212914639 0
0.55698961825214 0.5431506844806554 0
0.4365001961261518 0.5415315810733969 0
0.4989149690630471 0.6498774713089112 0
0.6204622660663316 0.6518781417959358 0
0.3748733700916652 0.6495569611339231 0
0.3123122610363022 0.5413164793658919 0
0.5624999999999973 0.757772228311381 0
0.2499999999999989 0.6495190528383259 0
0.3133176815799774 0.7523710733550597 0
0.685881360403847 0.7503445567222475 0
0.7558138451570435 0.6422638761822286 0
0.1875710532781786 0.5449975168824133 0
0.2499999999999993 0.433012701892217 0
0.1778732193721209 0.3232140480521861 0
0.301484014301639 0.3178829819971146 0
0.2375681941678717 0.2131232466900193 0
0.7646672502010368 0.229066006106814 0
0.891746824526945 0.6874999999999991 0
0.7774226411965254 0.5265527835888375 0
0.8628769461960453 0.4382017528180521 0
0.7819074654780986 0.3451910717748128 0
0.3125000000000009 0.891746824526945 0
0.4369885941461045 0.1080009076591808 0
0.5625000000000009 0.8917468245269455 0
0.3714895616679679 0.2148949910804582 0
0.3724746634145926 0.4316192480461928 0
0.4374999999999979 0.7577722283113806 0
0.8959004857786097 0.1879321779033213 0
0.8081462788186125 0.9070743513265296 0
0.103415783057214 0.8066379931605242 0
0.1911333561284869 0.1028269135594175 0
0.7923273839860845 0.7437108155792401 0
0.2010889394410991 0.7499266504670595 0
0.6739266620600561 0.3223988573944038 0
0.08453570123751109 0.5625000000000009 0
0.6718404232224279 0.54227566419079 0
0.07733755452579327 0.3125000000000011 0
0.09150635094610993 0.09150635094611009 0
0.90849364905389 0.09150635094610993 0
0.09150635094611009 0.9084936490538901 0
0.9084936490538901 0.90849364905389 0
0.7301718800130685 0.43455349184306 0
0.3750000000000013 0.8247595264191645 0
0.4999999999999999 0.8247595264191637 0
0.6250000000000007 0.8247595264191652 0
0.2601608324359393 0.8246932292153027 0
0.7489644266062752 0.8253550026152658 0
0.8302838679898232 0.2084990920050677 0
0.8938236551527776 0.2502160889516604 0
0.8282070373639911 0.2707830030534068 0
0.8368271450025221 0.3288455358874062 0
0.7732873578395677 0.2871285389408134 0
0.8852438417872106 0.6281894148166929 0
0.8237803348419943 0.6648819380911138 0
0.8172773521022598 0.6055713529078077 0
0.1529168691899851 0.6071117454027122 0
0.2187855266390888 0.5972582848603696 0
0.1841313425508954 0.6593725133806685 0
0.7666182431767845 0.584408329885533 0
0.8280817501220008 0.5477158066111121 0
0.1013991931696514 0.6158629869615059 0
0.1360533772578448 0.5537487584412071 0
0.9314384730980226 0.4691008764090255 0
0.9314384730980226 0.4066008764090258 0
0.1735266931782891 0.2082326561438443 0
0.2077207067699963 0.2681686473711027 0
0.1436792057804137 0.2632780568249278 0
0.3406907076158074 0.1609550168450485 0
0.3045288779179198 0.2140091188852388 0
0.2737300238657594 0.1600691446498291 0
0.1276053869489571 0.3178570240260936 0
0.09341137335724986 0.2579210327988353 0
0.8708089026217607 0.5035402912257194 0
0.9393704295237382 0.5344394148166928 0
0.8773118853614954 0.3753508764090259 0
0.9458734122634728 0.3437499999999995 0
0.1442990792739505 0.3795595924729784 0
0.2139366096860601 0.3781133749722015 0
0.1803624695878897 0.434458919392994 0
0.2187855266390889 0.4890051093873152 0
0.1491479962269793 0.4904513268880921 0
0.4037573069666395 0.3774344374845722 0
0.3369793388581158 0.3747511150216537 0
0.3682619824101627 0.3205663044600331 0
0.3364867879848034 0.2663889865387864 0
0.2695261042347553 0.2655031143435669 0
0.8539354073092498 0.1468893417676502 0
0.7883187895204633 0.1674562558693966 0
0.8201497936962854 0.4823772682034448 0
0.3112373317072959 0.4323159749692049 0
0.2757420071508191 0.3754478419446658 0
0.4032647560933271 0.2690723090017049 0
0.753797260604797 0.4805531377159488 0
0.7965244131045569 0.436377622330556 0
0.7560396727455836 0.3898722818089364 0
0.822392205837072 0.3916964122964325 0
0.8420371042565147 0.7156054077896197 0
0.774070614571564 0.6929873458807344 0
0.225544469720549 0.6997228516526928 0
0.1596758122714454 0.7095763121950353 0
0.23967861683688 0.3205485150246503 0
0.1522523612491565 0.7782823218137919 0
0.1942944697205499 0.8208367374970023 0
0.1454578915286073 0.8491924088437346 0
0.2306248859385192 0.7873099398411811 0
0.22383041621797 0.8582200268711238 0
0.7279170637690774 0.3337949645846083 0
0.7192969561305464 0.2757324317506089 0
0.2143507751481792 0.1579750801247184 0
0.250512604846067 0.1049209780845282 0
0.9458734122634724 0.6562499999999989 0
0.9393704295237382 0.5969394148166928 0
0.6548249946756093 0.1613527853300125 0
0.5923691339389516 0.161553341150102 0
0.6249558607366564 0.1080526196529651 0
0.7260394858371755 0.1684590349698447 0
0.6934527590394706 0.2219597564669817 0
0.6562058607366564 0.05392603191643774 0
0.5937499999999989 0.05412658773652734 0
0.7187058607366565 0.05392603191643774 0
0.9458734122634724 0.7187499999999991 0
0.3437500000000011 0.9458734122634724 0
0.3750000000000011 0.8917468245269452 0
0.4062500000000012 0.9458734122634727 0
0.7496910251566019 0.1068492847324273 0
0.7809851644199445 0.05292325281598959 0
0.4059942970730519 0.0540004538295904 0
0.3734402238548757 0.1075079751344098 0
0.3424459267818232 0.05350752130481945 0
0.2812500000000009 0.9458734122634724 0
0.5312499999999989 0.05412658773652734 0
0.8854886438816285 0.7502953211882294 0
0.9396152316181561 0.7815453211882294 0
0.4997442970730517 0.1081270415661177 0
0.4684942970730516 0.0540004538295904 0
0.4044874297703721 0.4865754145597948 0
0.4359931109596845 0.4321706825358886 0
0.4680058773154641 0.4871268490494907 0
0.9458734122634728 0.2812499999999997 0
0.1562500000000007 0.9458734122634724 0
0.2187500000000008 0.9458734122634724 0
0.2500000000000008 0.8917468245269449 0
0.4355146364904755 0.2155629340033703 0
0.4042390779070362 0.1614479493698195 0
0.4682641527295438 0.1621158922927316 0
0.05536246958789004 0.405452568446886 0
0.05536246958789004 0.467952568446886 0
0.4672898309158348 0.269740251924617 0
0.4672757545117314 0.3779858719742681 0
0.6881380556116876 0.6470710089890822 0
0.7208476027804452 0.6963042164522381 0
0.6531718132350892 0.7011113492590917 0
0.05474259609435322 0.164171032798835 0
0.05474259609435322 0.2266710327988352 0
0.5608889895954439 0.2155421918767159 0
0.531019855656491 0.1622420261996685 0
0.5907271226877022 0.2688528273554593 0
0.5293778444052416 0.2695415124050258 0
0.3124366850458321 0.6495380069861245 0
0.2811561305181506 0.5954177661021089 0
0.3435928155639837 0.5954367202499076 0
0.2799459267818234 0.05350752130481945 0
0.4687500000000012 0.9458734122634727 0
0.3423934622254474 0.4864678637060423 0
0.374406228581227 0.5414240302196444 0
0.9396152316181561 0.8440453211882296 0
0.4999999999999976 0.7577722283113808 0
0.4682074845315225 0.7038248498101458 0
0.5307074845315222 0.7038248498101461 0
0.8434851644199446 0.05292325281598959 0
0.5293637680011383 0.3777871324546769 0
0.4971279640080932 0.3230508874033604 0
0.5861365597113792 0.3777764845876165 0
0.5562843502150174 0.4327114691585242 0
0.5850233800886993 0.4879257528860596 0
0.5282505883784582 0.4879364007531199 0
0.6560945670075992 0.9477534069567813 0
0.718594567007599 0.9477534069567813 0
0.531250000000001 0.9458734122634728 0
0.5937500000000008 0.9458734122634728 0
0.500000000000001 0.8917468245269455 0
0.4368941695773562 0.6497172162214171 0
0.4056867831089085 0.59554427110366 0
0.4677075825945994 0.595704526191154 0
0.2811561305181507 0.4871645906290545 0
0.05913134255089592 0.6471129869615058 0
0.05913134255089592 0.7096129869615055 0
0.5887259421592358 0.5975144131382956 0
0.5596886175646894 0.6508778065524234 0
0.5279522936575936 0.5965140778947833 0
0.4061866850458316 0.7036645947226519 0
0.2499416571572404 0.5431569981241526 0
0.4967449071891459 0.5423411327770261 0
0.6248445670075993 0.8936268192202541 0
0.5914811330331644 0.7048251850536584 0
0.6241906802019221 0.7540583925168143 0
0.3754088407899877 0.7550716508332201 0
0.3440955258358213 0.7009640172444914 0
0.2816588407899882 0.7009450630966928 0
0.7138271341897358 0.5922697701865094 0
0.7246315322094766 0.5344142238898137 0
0.7785553527124438 0.8662146769708977 0
0.8140974449212937 0.8192228224958628 0
0.8436883710274623 0.8600824968514946 0
0.7706459052961798 0.784532909097253 0
0.8357789236111983 0.77840072897785 0
0.7790731394093063 0.9535371756632648 0
0.8415731394093063 0.9535371756632648 0
0.051707891528607 0.7783189965802622 0
0.051707891528607 0.8408189965802622 0
0.9479502428893049 0.2189660889516605 0
0.9479502428893049 0.1564660889516606 0
0.09763032020664553 0.4992025684468859 0
0.2205666780642433 0.05141345677970877 0
0.1580666780642433 0.05141345677970877 0
0.09403124685078668 0.3742025684468859 0
0.1108392340795029 0.7379319835417676 0
0.7476677064169052 0.9012905826200461 0
0.6716145109691636 0.4336271565672619 0
0.7010061516177483 0.488414578016925 0
0.6424487825738432 0.487488242741127 0
0.1503092741585966 0.1530844895785435 0
0.6480824649689803 0.2686261821107766 0
0.6165713197787781 0.3226255026390865 0
0.6434919019926573 0.3775498393429338 0
0.04226785061875554 0.531250000000001 0
0.04226785061875554 0.5937500000000008 0
0.6144150207372839 0.5427131743357227 0
0.6461513446443797 0.5970769029933629 0
0.03866877726289664 0.281250000000001 0
0.03866877726289664 0.3437500000000011 0
0.04575317547305496 0.04575317547305502 0
0.04575317547305496 0.1082531754730554 0
0.04575317547305502 0.9542468245269451 0
0.1082531754730554 0.9542468245269451 0
0.9542468245269451 0.954246824526945 0
0.9542468245269451 0.8917468245269446 0
0.1082531754730549 0.04575317547305502 0
0.954246824526945 0.04575317547305496 0
0.8917468245269446 0.04575317547305496 0
0.954246824526945 0.1082531754730549 0
0.04575317547305502 0.8917468245269451 0
0.8917468245269451 0.954246824526945 0
0.7020492710365623 0.3784761746187319 0
0.7391043721949657 0.7470276861507439 0
0.2572033105105382 0.7511488619110597 0
0.9021970674162498 0.1397192644247156 0
0.8583199639362513 0.9077840001902098 0
0.09746106700166202 0.8575658211072071 0
0.1395031754730554 0.9001202367904175 0
0.8602319889468899 0.09867642828904455 0
0.8938620561451011 0.8607921457151748 0
0.1004957715674082 0.1474242082718897 0
0.1413198535372984 0.09716663225276378 0
0.3175804162179703 0.8247263778172336 0
0.2867392570079583 0.7885321512851813 0
0.3441588407899894 0.7885652998871121 0
0.5625000000000002 0.8247595264191644 0
0.5937500000000008 0.8582531754730554 0
0.5312500000000003 0.8582531754730547 0
0.5937499999999989 0.7912658773652731 0
0.5312499999999986 0.7912658773652724 0
0.4687500000000006 0.8582531754730546 0
0.3437500000000011 0.8582531754730547 0
0.4062500000000013 0.8582531754730549 0
0.6554406802019237 0.7875520415707064 0
0.4062499999999996 0.7912658773652725 0
0.6560945670075992 0.8601331701663639 0
0.4687499999999989 0.7912658773652721 0
0.4375000000000006 0.8247595264191641 0
0.2863304162179701 0.8582200268711239 0
0.7174228935050611 0.7878497796687567 0
0.6869822133031379 0.8250572645172154 0
0.7180767803107365 0.8604309082644142 0
$EndNodes
$Elements
1 648 1 648
2 20 2 648
1 100 131 133 
2 131 132 133 
3 131 111 132 
4 133 132 70 
5 70 134 133 
6 134 135 133 
7 134 104 135 
8 133 135 100 
9 66 136 138 
10 136 137 138 
11 136 101 137 
12 138 137 94 
13 72 139 141 
14 139 140 141 
15 139 95 140 
16 141 140 91 
17 94 142 138 
18 142 143 138 
19 142 102 143 
20 138 143 66 
21 72 144 139 
22 144 145 139 
23 144 118 145 
24 139 145 95 
25 27 146 26 
26 146 147 26 
27 146 103 147 
28 26 147 25 
29 73 148 150 
30 148 149 150 
31 148 99 149 
32 150 149 97 
33 69 151 153 
34 151 152 153 
35 151 108 152 
36 153 152 99 
37 97 154 150 
38 154 155 150 
39 154 120 155 
40 150 155 73 
41 66 156 157 
42 156 146 157 
43 156 103 146 
44 157 146 27 
45 25 147 159 
46 147 158 159 
47 147 103 158 
48 159 158 70 
49 68 160 162 
50 160 161 162 
51 160 97 161 
52 162 161 96 
53 68 162 164 
54 162 163 164 
55 162 96 163 
56 164 163 95 
57 81 165 167 
58 165 166 167 
59 165 109 166 
60 167 166 98 
61 99 152 169 
62 152 168 169 
63 152 108 168 
64 169 168 98 
65 74 170 171 
66 170 131 171 
67 170 111 131 
68 171 131 100 
69 102 172 143 
70 172 156 143 
71 172 103 156 
72 143 156 66 
73 98 166 174 
74 166 173 174 
75 166 109 173 
76 174 173 96 
77 98 168 167 
78 168 175 167 
79 168 108 175 
80 167 175 81 
81 102 176 172 
82 176 177 172 
83 176 125 177 
84 172 177 103 
85 103 177 179 
86 177 178 179 
87 177 125 178 
88 179 178 104 
89 101 180 137 
90 180 181 137 
91 180 115 181 
92 137 181 94 
93 91 182 141 
94 182 183 141 
95 182 116 183 
96 141 183 72 
97 97 184 161 
98 184 174 161 
99 184 98 174 
100 161 174 96 
101 113 185 187 
102 185 186 187 
103 185 116 186 
104 187 186 75 
105 116 188 186 
106 188 189 186 
107 188 129 189 
108 186 189 75 
109 104 190 135 
110 190 191 135 
111 190 117 191 
112 135 191 100 
113 103 179 158 
114 179 134 158 
115 179 104 134 
116 158 134 70 
117 97 149 184 
118 149 169 184 
119 149 99 169 
120 184 169 98 
121 99 192 153 
122 192 193 153 
123 192 114 193 
124 153 193 69 
125 29 194 195 
126 194 136 195 
127 194 101 136 
128 195 136 66 
129 77 196 198 
130 196 197 198 
131 196 78 197 
132 198 197 65 
133 77 199 196 
134 199 200 196 
135 199 100 200 
136 196 200 78 
137 14 201 202 
138 201 198 202 
139 201 77 198 
140 202 198 65 
141 16 203 15 
142 203 201 15 
143 203 77 201 
144 15 201 14 
145 31 204 30 
146 204 194 30 
147 204 101 194 
148 30 194 29 
149 44 205 207 
150 205 206 207 
151 205 105 206 
152 207 206 67 
153 74 208 209 
154 208 203 209 
155 208 77 203 
156 209 203 16 
157 10 210 212 
158 210 211 212 
159 210 106 211 
160 212 211 69 
161 46 213 45 
162 213 205 45 
163 213 105 205 
164 45 205 44 
165 14 202 13 
166 202 214 13 
167 202 65 214 
168 13 214 12 
169 76 215 216 
170 215 204 216 
171 215 101 204 
172 216 204 31 
173 74 171 208 
174 171 199 208 
175 171 100 199 
176 208 199 77 
177 65 217 214 
178 217 218 214 
179 217 106 218 
180 214 218 12 
181 29 195 28 
182 195 157 28 
183 195 66 157 
184 28 157 27 
185 85 219 221 
186 219 220 221 
187 219 109 220 
188 221 220 82 
189 25 159 24 
190 159 222 24 
191 159 70 222 
192 24 222 23 
193 12 218 11 
194 218 210 11 
195 218 106 210 
196 11 210 10 
197 48 223 47 
198 223 224 47 
199 223 75 224 
200 47 224 46 
201 75 225 224 
202 225 213 224 
203 225 105 213 
204 224 213 46 
205 79 226 228 
206 226 227 228 
207 226 108 227 
208 228 227 106 
209 59 229 58 
210 229 230 58 
211 229 68 230 
212 58 230 57 
213 81 175 231 
214 175 226 231 
215 175 108 226 
216 231 226 79 
217 82 220 232 
218 220 165 232 
219 220 109 165 
220 232 165 81 
221 87 233 235 
222 233 234 235 
223 233 94 234 
224 235 234 93 
225 63 236 62 
226 236 237 62 
227 236 73 237 
228 62 237 61 
229 78 238 197 
230 238 239 197 
231 238 79 239 
232 197 239 65 
233 106 227 211 
234 227 151 211 
235 227 108 151 
236 211 151 69 
237 78 240 238 
238 240 241 238 
239 240 80 241 
240 238 241 79 
241 88 242 244 
242 242 243 244 
243 242 91 243 
244 244 243 89 
245 10 212 9 
246 212 245 9 
247 212 69 245 
248 9 245 8 
249 44 207 43 
250 207 246 43 
251 207 67 246 
252 43 246 42 
253 89 247 248 
254 247 219 248 
255 247 109 219 
256 248 219 85 
257 33 249 32 
258 249 216 32 
259 249 76 216 
260 32 216 31 
261 79 228 239 
262 228 217 239 
263 228 106 217 
264 239 217 65 
265 90 250 252 
266 250 251 252 
267 250 110 251 
268 252 251 86 
269 18 253 17 
270 253 209 17 
271 253 74 209 
272 17 209 16 
273 80 254 255 
274 254 232 255 
275 254 82 232 
276 255 232 81 
277 80 256 254 
278 256 257 254 
279 256 83 257 
280 254 257 82 
281 83 258 257 
282 258 259 257 
283 258 84 259 
284 257 259 82 
285 40 260 39 
286 260 261 39 
287 260 71 261 
288 39 261 38 
289 42 262 41 
290 262 263 41 
291 262 107 263 
292 41 263 40 
293 67 264 246 
294 264 262 246 
295 264 107 262 
296 246 262 42 
297 80 255 241 
298 255 231 241 
299 255 81 231 
300 241 231 79 
301 86 265 267 
302 265 266 267 
303 265 88 266 
304 267 266 85 
305 96 173 268 
306 173 247 268 
307 173 109 247 
308 268 247 89 
309 55 269 54 
310 269 270 54 
311 269 72 270 
312 54 270 53 
313 84 271 273 
314 271 272 273 
315 271 87 272 
316 273 272 86 
317 88 244 266 
318 244 248 266 
319 244 89 248 
320 266 248 85 
321 86 251 265 
322 251 274 265 
323 251 110 274 
324 265 274 88 
325 91 140 243 
326 140 275 243 
327 140 95 275 
328 243 275 89 
329 84 276 259 
330 276 221 259 
331 276 85 221 
332 259 221 82 
333 95 163 275 
334 163 268 275 
335 163 96 268 
336 275 268 89 
337 40 263 260 
338 263 277 260 
339 263 107 277 
340 260 277 71 
341 87 278 272 
342 278 252 272 
343 278 90 252 
344 272 252 86 
345 87 235 278 
346 235 279 278 
347 235 93 279 
348 278 279 90 
349 88 274 281 
350 274 280 281 
351 274 110 280 
352 281 280 92 
353 84 273 276 
354 273 267 276 
355 273 86 267 
356 276 267 85 
357 88 281 242 
358 281 282 242 
359 281 92 282 
360 242 282 91 
361 94 283 142 
362 283 284 142 
363 283 119 284 
364 142 284 102 
365 112 285 287 
366 285 286 287 
367 285 130 286 
368 287 286 76 
369 76 286 289 
370 286 288 289 
371 286 130 288 
372 289 288 115 
373 38 290 37 
374 290 291 37 
375 290 112 291 
376 37 291 36 
377 53 292 52 
378 292 293 52 
379 292 113 293 
380 52 293 51 
381 23 294 22 
382 294 295 22 
383 294 111 295 
384 22 295 21 
385 95 145 164 
386 145 296 164 
387 145 118 296 
388 164 296 68 
389 8 297 7 
390 297 298 7 
391 297 114 298 
392 7 298 6 
393 69 193 245 
394 193 297 245 
395 193 114 297 
396 245 297 8 
397 68 299 160 
398 299 154 160 
399 299 120 154 
400 160 154 97 
401 70 132 222 
402 132 294 222 
403 132 111 294 
404 222 294 23 
405 72 300 270 
406 300 292 270 
407 300 113 292 
408 270 292 53 
409 71 301 261 
410 301 290 261 
411 301 112 290 
412 261 290 38 
413 83 302 304 
414 302 303 304 
415 302 125 303 
416 304 303 119 
417 73 305 148 
418 305 192 148 
419 305 114 192 
420 148 192 99 
421 100 191 200 
422 191 306 200 
423 191 117 306 
424 200 306 78 
425 80 307 256 
426 307 308 256 
427 307 117 308 
428 256 308 83 
429 68 296 230 
430 296 309 230 
431 296 118 309 
432 230 309 57 
433 55 310 269 
434 310 144 269 
435 310 118 144 
436 269 144 72 
437 83 304 258 
438 304 311 258 
439 304 119 311 
440 258 311 84 
441 87 312 233 
442 312 283 233 
443 312 119 283 
444 233 283 94 
445 73 155 237 
446 155 313 237 
447 155 120 313 
448 237 313 61 
449 59 314 229 
450 314 299 229 
451 314 120 299 
452 229 299 68 
453 1 315 64 
454 315 316 64 
455 315 121 316 
456 64 316 63 
457 4 317 49 
458 317 318 49 
459 317 123 318 
460 49 318 48 
461 3 319 34 
462 319 320 34 
463 319 124 320 
464 34 320 33 
465 6 321 5 
466 321 315 5 
467 321 121 315 
468 5 315 1 
469 2 322 19 
470 322 323 19 
471 322 122 323 
472 19 323 18 
473 21 324 20 
474 324 322 20 
475 324 122 322 
476 20 322 2 
477 51 325 50 
478 325 317 50 
479 325 123 317 
480 50 317 4 
481 36 326 35 
482 326 319 35 
483 326 124 319 
484 35 319 3 
485 117 327 308 
486 327 302 308 
487 327 125 302 
488 308 302 83 
489 94 181 234 
490 181 328 234 
491 181 115 328 
492 234 328 93 
493 76 289 215 
494 289 180 215 
495 289 115 180 
496 215 180 101 
497 92 329 282 
498 329 182 282 
499 329 116 182 
500 282 182 91 
501 119 303 284 
502 303 176 284 
503 303 125 176 
504 284 176 102 
505 78 306 240 
506 306 307 240 
507 306 117 307 
508 240 307 80 
509 72 183 300 
510 183 185 300 
511 183 116 185 
512 300 185 113 
513 57 309 56 
514 309 310 56 
515 309 118 310 
516 56 310 55 
517 84 311 271 
518 311 312 271 
519 311 119 312 
520 271 312 87 
521 104 178 190 
522 178 327 190 
523 178 125 327 
524 190 327 117 
525 111 330 295 
526 330 324 295 
527 330 122 324 
528 295 324 21 
529 112 331 291 
530 331 326 291 
531 331 124 326 
532 291 326 36 
533 113 332 293 
534 332 325 293 
535 332 123 325 
536 293 325 51 
537 61 313 60 
538 313 314 60 
539 313 120 314 
540 60 314 59 
541 48 318 223 
542 318 333 223 
543 318 123 333 
544 223 333 75 
545 18 323 253 
546 323 334 253 
547 323 122 334 
548 253 334 74 
549 33 320 249 
550 320 335 249 
551 320 124 335 
552 249 335 76 
553 63 316 236 
554 316 336 236 
555 316 121 336 
556 236 336 73 
557 114 337 298 
558 337 321 298 
559 337 121 321 
560 298 321 6 
561 126 338 340 
562 338 339 340 
563 338 129 339 
564 340 339 92 
565 127 341 343 
566 341 342 343 
567 341 128 342 
568 343 342 107 
569 90 344 345 
570 344 341 345 
571 344 128 341 
572 345 341 127 
573 67 346 264 
574 346 343 264 
575 346 127 343 
576 264 343 107 
577 105 347 206 
578 347 348 206 
579 347 126 348 
580 206 348 67 
581 93 349 279 
582 349 344 279 
583 349 128 344 
584 279 344 90 
585 110 350 280 
586 350 340 280 
587 350 126 340 
588 280 340 92 
589 107 342 277 
590 342 351 277 
591 342 128 351 
592 277 351 71 
593 90 345 250 
594 345 352 250 
595 345 127 352 
596 250 352 110 
597 110 352 350 
598 352 353 350 
599 352 127 353 
600 350 353 126 
601 126 353 348 
602 353 346 348 
603 353 127 346 
604 348 346 67 
605 105 354 347 
606 354 338 347 
607 354 129 338 
608 347 338 126 
609 75 189 225 
610 189 354 225 
611 189 129 354 
612 225 354 105 
613 74 334 170 
614 334 330 170 
615 334 122 330 
616 170 330 111 
617 76 335 287 
618 335 331 287 
619 335 124 331 
620 287 331 112 
621 75 333 187 
622 333 332 187 
623 333 123 332 
624 187 332 113 
625 93 355 349 
626 355 356 349 
627 355 130 356 
628 349 356 128 
629 128 356 351 
630 356 357 351 
631 356 130 357 
632 351 357 71 
633 73 336 305 
634 336 337 305 
635 336 121 337 
636 305 337 114 
637 71 357 301 
638 357 285 301 
639 357 130 285 
640 301 285 112 
641 92 339 329 
642 339 188 329 
643 339 129 188 
644 329 188 116 
645 115 288 328 
646 288 355 328 
647 288 130 355 
648 328 355 93 
$EndElements
