# vtk DataFile Version 2.0
example 4, Created by Gmsh 4.14.1 
ASCII
DATASET UNSTRUCTURED_GRID
POINTS 282 double
0 0 0
1 0 0
0 1 0
1 1 0
0.8 0.5 0
0.06249999999999992 0 0
0.1249999999999998 0 0
0.1874999999999998 0 0
0.2499999999999998 0 0
0.3124999999999996 0 0
0.3749999999999994 0 0
0.4374999999999991 0 0
0.4999999999999988 0 0
0.5624999999999988 0 0
0.6249999999999988 0 0
0.687499999999999 0 0
0.7499999999999991 0 0
0.8124999999999993 0 0
0.8749999999999994 0 0
0.9374999999999997 0 0
0 0.9375000000000001 0
0 0.8750000000000001 0
0 0.8125000000000002 0
0 0.7500000000000002 0
0 0.6875000000000004 0
0 0.6250000000000007 0
0 0.5625000000000009 0
0 0.5000000000000011 0
0 0.4375000000000012 0
0 0.3750000000000012 0
0 0.312500000000001 0
0 0.2500000000000009 0
0 0.1875000000000007 0
0 0.1250000000000006 0
0 0.06250000000000033 0
1 0.06249999999999992 0
1 0.1249999999999998 0
1 0.1874999999999998 0
1 0.2499999999999998 0
1 0.3124999999999996 0
1 0.3749999999999994 0
1 0.4374999999999991 0
1 0.4999999999999988 0
1 0.5624999999999988 0
1 0.6249999999999988 0
1 0.687499999999999 0
1 0.7499999999999991 0
1 0.8124999999999993 0
1 0.8749999999999994 0
1 0.9374999999999997 0
0.9375000000000001 1 0
0.8750000000000001 1 0
0.8125000000000002 1 0
0.7500000000000002 1 0
0.6875000000000004 1 0
0.6250000000000007 1 0
0.5625000000000009 1 0
0.5000000000000011 1 0
0.4375000000000012 1 0
0.3750000000000012 1 0
0.312500000000001 1 0
0.2500000000000009 1 0
0.1875000000000007 1 0
0.1250000000000006 1 0
0.06250000000000033 1 0
0.7924783736545471 0.5667562801868944 0
0.7702906603707257 0.6301651217352675 0
0.7345494447404088 0.6870469405576203 0
0.6870469405576198 0.7345494447404091 0
0.6301651217352671 0.7702906603707259 0
0.5667562801868938 0.7924783736545471 0
0.4999999999999995 0.8 0
0.4332437198131051 0.7924783736545469 0
0.3698348782647319 0.7702906603707254 0
0.3129530594423792 0.7345494447404084 0
0.2654505552595904 0.6870469405576193 0
0.2297093396292738 0.6301651217352665 0
0.2075216263454527 0.5667562801868933 0
0.2 0.4999999999999988 0
0.2075216263454532 0.4332437198131044 0
0.2297093396292749 0.3698348782647313 0
0.2654505552595922 0.3129530594423786 0
0.3129530594423816 0.2654505552595898 0
0.3698348782647342 0.2297093396292735 0
0.4332437198131072 0.2075216263454526 0
0.5000000000000016 0.2 0
0.5667562801868956 0.2075216263454532 0
0.6301651217352684 0.2297093396292747 0
0.6870469405576206 0.2654505552595915 0
0.7345494447404093 0.3129530594423803 0
0.7702906603707258 0.3698348782647327 0
0.7924783736545471 0.4332437198131059 0
0.8808644027755217 0.1855240094040315 0
0.1191355972244781 0.185524009404032 0
0.1191355972244783 0.8144759905959686 0
0.8808644027755219 0.814475990595968 0
0.6797317043461891 0.1196661615889354 0
0.320268295653811 0.8803338384110646 0
0.6797317043461898 0.8803338384110648 0
0.3202682956538106 0.1196661615889349 0
0.8917047114003339 0.3121901849779933 0
0.1082952885996665 0.3121901849779947 0
0.8917047114003335 0.6878098150220053 0
0.1082952885996661 0.6878098150220067 0
0.1918258485448096 0.09437967982681816 0
0.8081741514551906 0.9056203201731818 0
0.8081741514551898 0.09437967982681827 0
0.1918258485448103 0.9056203201731817 0
0.1000000000000007 0.5625000000000009 0
0.8999999999999997 0.4374999999999991 0
0.9000000000000004 0.5624999999999988 0
0.0999999999999992 0.4375000000000012 0
0.5403719507243647 0.1048503676730842 0
0.4337767932382561 0.0864076311214943 0
0.4596280492756355 0.8951496323269158 0
0.5662232067617442 0.9135923688785056 0
0.2031549150433976 0.2606435255609815 0
0.7968450849566029 0.2606435255609818 0
0.2031549150433971 0.739356474439018 0
0.7968450849566029 0.739356474439018 0
0.9091300919306176 0.09086990806938239 0
0.09086990806938244 0.9091300919306177 0
0.09086990806938183 0.09086990806938189 0
0.9091300919306182 0.9091300919306181 0
0.2341000423644645 0.1808714187767823 0
0.7658999576355354 0.1808714187767827 0
0.7658999576355359 0.8191285812232174 0
0.2341000423644646 0.8191285812232174 0
0.566489743474319 0.8530353712665264 0
0.5129256280186898 0.9043710006027107 0
0.5131921647312647 0.8438140029907315 0
0.4335102565256816 0.1469646287334734 0
0.4870743719813105 0.09562899939728925 0
0.486807835268736 0.1561859970092684 0
0.3166106775480961 0.1925583584242623 0
0.3767560077334589 0.1635938939671937 0
0.6833893224519048 0.8074416415757371 0
0.6232439922665418 0.8364061060328061 0
0.6232439922665424 0.1635938939671943 0
0.683389322451905 0.1925583584242634 0
0.376756007733458 0.8364061060328059 0
0.3166106775480951 0.8074416415757365 0
0.4464358845443703 0.8438140029907314 0
0.5535641154556302 0.1561859970092687 0
0.7228158309908623 0.150268790182859 0
0.7264734490965781 0.2231609870181871 0
0.2771841690091378 0.849731209817141 0
0.2735265509034219 0.7768390129818129 0
0.7264734490965779 0.7768390129818132 0
0.7228158309908628 0.8497312098171411 0
0.273526550903423 0.223160987018186 0
0.2771841690091376 0.1502687901828587 0
0.3770225444460334 0.1030368963552146 0
0.622977455553967 0.8969631036447852 0
0.610051827535277 0.1122582646310098 0
0.3899481724647232 0.8877417353689903 0
0.164854669814637 0.4036674391323662 0
0.1041476442998329 0.3748450924889979 0
0.1690023141144707 0.341012531621363 0
0.8351453301853631 0.5963325608676332 0
0.895852355700167 0.6251549075110021 0
0.8309976858855296 0.6589874683786364 0
0.8958523557001667 0.3748450924889962 0
0.8351453301853627 0.4036674391323659 0
0.8309976858855299 0.341012531621363 0
0.1041476442998334 0.6251549075110038 0
0.1648546698146373 0.5963325608676338 0
0.16900231411447 0.6589874683786365 0
0.1499999999999996 0.46875 0
0.8500000000000002 0.5312499999999994 0
0.8499999999999999 0.4687499999999996 0
0.1500000000000004 0.5312499999999999 0
0.05956779861223904 0.1552620047020163 0
0.05956779861223904 0.2177620047020165 0
0.05956779861223915 0.7822379952979844 0
0.05956779861223915 0.8447379952979843 0
0.9404322013877608 0.2177620047020157 0
0.9404322013877608 0.1552620047020157 0
0.940432201387761 0.8447379952979837 0
0.940432201387761 0.7822379952979835 0
0.7148658521730942 0.0598330807944677 0
0.652365852173094 0.0598330807944677 0
0.347634147826905 0.05983308079446747 0
0.2851341478269052 0.05983308079446747 0
0.2851341478269059 0.9401669192055323 0
0.3476341478269061 0.9401669192055323 0
0.6523658521730952 0.9401669192055324 0
0.7148658521730951 0.9401669192055324 0
0.9458523557001668 0.7189049075110022 0
0.9458523557001668 0.6564049075110021 0
0.05414764429983326 0.2810950924889978 0
0.05414764429983326 0.3435950924889979 0
0.945852355700167 0.3435950924889963 0
0.945852355700167 0.2810950924889966 0
0.0541476442998331 0.6564049075110037 0
0.0541476442998331 0.7189049075110034 0
0.8862845570879279 0.2488570971910125 0
0.1137154429120724 0.2488570971910133 0
0.8862845570879276 0.7511429028089867 0
0.1137154429120722 0.7511429028089877 0
0.7790870757275945 0.04718983991340914 0
0.7439529279006895 0.1070229207078768 0
0.2560470720993101 0.1070229207078766 0
0.2209129242724047 0.04718983991340908 0
0.2209129242724056 0.9528101600865908 0
0.2560470720993106 0.8929770792921232 0
0.7439529279006902 0.8929770792921233 0
0.7790870757275954 0.9528101600865909 0
0.9499999999999998 0.4062499999999992 0
0.9500000000000002 0.5937499999999988 0
0.05000000000000038 0.5937500000000008 0
0.0499999999999996 0.4062500000000012 0
0.1584129242724047 0.04718983991340908 0
0.8415870757275954 0.9528101600865909 0
0.8415870757275946 0.04718983991340914 0
0.1584129242724054 0.9528101600865908 0
0.5826859753621818 0.0524251838365421 0
0.4173140246378184 0.9475748161634578 0
0.4043883966191278 0.04320381556074715 0
0.5956116033808724 0.9567961844392527 0
0.05000000000000038 0.531250000000001 0
0.9499999999999998 0.468749999999999 0
0.9500000000000002 0.5312499999999988 0
0.0499999999999996 0.4687500000000012 0
0.04543495403469122 0.9545650459653088 0
0.1079349540346915 0.9545650459653088 0
0.9545650459653088 0.1079349540346911 0
0.9545650459653088 0.04543495403469122 0
0.8920650459653086 0.04543495403469122 0
0.04543495403469122 0.8920650459653089 0
0.04543495403469089 0.04543495403469094 0
0.04543495403469089 0.1079349540346912 0
0.1079349540346908 0.04543495403469094 0
0.9545650459653091 0.954565045965309 0
0.9545650459653091 0.8920650459653088 0
0.8920650459653092 0.954565045965309 0
0.7835678726636643 0.3152392019128573 0
0.8442748981784683 0.2864168552694876 0
0.2164321273363354 0.6847607980871423 0
0.1557251018215317 0.7135831447305123 0
0.8442748981784681 0.7135831447305117 0
0.7835678726636643 0.6847607980871427 0
0.1557251018215321 0.2864168552694881 0
0.2164321273363362 0.3152392019128564 0
0.8233821802055286 0.1831977140904071 0
0.7870370545453627 0.1376255493018005 0
0.8445192771153558 0.1399518446154249 0
0.1766178197944714 0.8168022859095929 0
0.2129629454546375 0.8623744506981995 0
0.1554807228846443 0.8600481553845751 0
0.212962945454637 0.1376255493018003 0
0.1766178197944713 0.1831977140904072 0
0.1554807228846439 0.1399518446154251 0
0.7870370545453632 0.8623744506981996 0
0.8233821802055289 0.8168022859095927 0
0.8445192771153562 0.8600481553845749 0
0.9 0.4999999999999989 0
0.09999999999999998 0.500000000000001 0
0.7419460127571118 0.2630470404102866 0
0.2580539872428881 0.7369529595897132 0
0.2580539872428896 0.2630470404102856 0
0.7419460127571114 0.7369529595897135 0
0.7813725212960692 0.2207574721688823 0
0.8388547438660623 0.2230837674825067 0
0.2186274787039308 0.7792425278311177 0
0.1611452561339377 0.7769162325174933 0
0.2186274787039311 0.2207574721688819 0
0.1611452561339379 0.2230837674825068 0
0.7813725212960694 0.7792425278311177 0
0.8388547438660624 0.776916232517493 0
0.5201859753621818 0.0524251838365421 0
0.4798140246378184 0.9475748161634578 0
0.5331116033808727 0.9567961844392527 0
0.4668883966191275 0.04320381556074715 0
0.10500275264693 0.138196958736707 0
0.8949972473530701 0.8618030412632931 0
0.8949972473530696 0.138196958736707 0
0.1050027526469304 0.8618030412632931 0
0.1413478783070964 0.9073752060518997 0
0.8586521216929037 0.0926247939481003 0
0.8586521216929044 0.9073752060519 0
0.1413478783070957 0.09262479394810003 0

CELLS 488 1936
2 0 5
2 5 6
2 6 7
2 7 8
2 8 9
2 9 10
2 10 11
2 11 12
2 12 13
2 13 14
2 14 15
2 15 16
2 16 17
2 17 18
2 18 19
2 19 1
3 70 128 130
3 128 129 130
3 128 115 129
3 130 129 114
3 84 131 133
3 131 132 133
3 131 113 132
3 133 132 112
3 82 134 83
3 134 135 83
3 134 99 135
3 83 135 84
3 68 136 69
3 136 137 69
3 136 98 137
3 69 137 70
3 86 138 87
3 138 139 87
3 138 96 139
3 87 139 88
3 72 140 73
3 140 141 73
3 140 97 141
3 73 141 74
3 70 130 71
3 130 142 71
3 130 114 142
3 71 142 72
3 84 133 85
3 133 143 85
3 133 112 143
3 85 143 86
3 96 144 139
3 144 145 139
3 144 125 145
3 139 145 88
3 97 146 141
3 146 147 141
3 146 127 147
3 141 147 74
3 68 148 136
3 148 149 136
3 148 126 149
3 136 149 98
3 82 150 134
3 150 151 134
3 150 124 151
3 134 151 99
3 99 152 135
3 152 131 135
3 152 113 131
3 135 131 84
3 98 153 137
3 153 128 137
3 153 115 128
3 137 128 70
3 86 143 138
3 143 154 138
3 143 112 154
3 138 154 96
3 72 142 140
3 142 155 140
3 142 114 155
3 140 155 97
3 80 156 158
3 156 157 158
3 156 111 157
3 158 157 101
3 66 159 161
3 159 160 161
3 159 110 160
3 161 160 102
3 100 162 164
3 162 163 164
3 162 109 163
3 164 163 90
3 103 165 167
3 165 166 167
3 165 108 166
3 167 166 76
3 78 168 79
3 168 156 79
3 168 111 156
3 79 156 80
3 4 169 65
3 169 159 65
3 169 110 159
3 65 159 66
3 90 163 91
3 163 170 91
3 163 109 170
3 91 170 4
3 76 166 77
3 166 171 77
3 166 108 171
3 77 171 78
3 33 172 32
3 172 173 32
3 172 93 173
3 32 173 31
3 23 174 22
3 174 175 22
3 174 94 175
3 22 175 21
3 38 176 37
3 176 177 37
3 176 92 177
3 37 177 36
3 48 178 47
3 178 179 47
3 178 95 179
3 47 179 46
3 16 180 15
3 180 181 15
3 180 96 181
3 15 181 14
3 10 182 9
3 182 183 9
3 182 99 183
3 9 183 8
3 61 184 60
3 184 185 60
3 184 97 185
3 60 185 59
3 55 186 54
3 186 187 54
3 186 98 187
3 54 187 53
3 46 188 45
3 188 189 45
3 188 102 189
3 45 189 44
3 31 190 30
3 190 191 30
3 190 101 191
3 30 191 29
3 40 192 39
3 192 193 39
3 192 100 193
3 39 193 38
3 25 194 24
3 194 195 24
3 194 103 195
3 24 195 23
3 38 193 176
3 193 196 176
3 193 100 196
3 176 196 92
3 93 197 173
3 197 190 173
3 197 101 190
3 173 190 31
3 95 198 179
3 198 188 179
3 198 102 188
3 179 188 46
3 23 195 174
3 195 199 174
3 195 103 199
3 174 199 94
3 16 200 180
3 200 201 180
3 200 106 201
3 180 201 96
3 99 202 183
3 202 203 183
3 202 104 203
3 183 203 8
3 61 204 184
3 204 205 184
3 204 107 205
3 184 205 97
3 98 206 187
3 206 207 187
3 206 105 207
3 187 207 53
3 40 208 192
3 208 162 192
3 208 109 162
3 192 162 100
3 102 160 189
3 160 209 189
3 160 110 209
3 189 209 44
3 25 210 194
3 210 165 194
3 210 108 165
3 194 165 103
3 101 157 191
3 157 211 191
3 157 111 211
3 191 211 29
3 8 203 7
3 203 212 7
3 203 104 212
3 7 212 6
3 53 207 52
3 207 213 52
3 207 105 213
3 52 213 51
3 18 214 17
3 214 200 17
3 214 106 200
3 17 200 16
3 63 215 62
3 215 204 62
3 215 107 204
3 62 204 61
3 96 154 181
3 154 216 181
3 154 112 216
3 181 216 14
3 97 155 185
3 155 217 185
3 155 114 217
3 185 217 59
3 10 218 182
3 218 152 182
3 218 113 152
3 182 152 99
3 55 219 186
3 219 153 186
3 219 115 153
3 186 153 98
3 27 220 26
3 220 210 26
3 220 108 210
3 26 210 25
3 42 221 41
3 221 208 41
3 221 109 208
3 41 208 40
3 44 209 43
3 209 222 43
3 209 110 222
3 43 222 42
3 29 211 28
3 211 223 28
3 211 111 223
3 28 223 27
3 2 224 64
3 224 225 64
3 224 121 225
3 64 225 63
3 36 226 35
3 226 227 35
3 226 120 227
3 35 227 1
3 1 227 19
3 227 228 19
3 227 120 228
3 19 228 18
3 21 229 20
3 229 224 20
3 229 121 224
3 20 224 2
3 0 230 34
3 230 231 34
3 230 122 231
3 34 231 33
3 6 232 5
3 232 230 5
3 232 122 230
3 5 230 0
3 3 233 49
3 233 234 49
3 233 123 234
3 49 234 48
3 51 235 50
3 235 233 50
3 235 123 233
3 50 233 3
3 90 236 164
3 236 237 164
3 236 117 237
3 164 237 100
3 76 238 167
3 238 239 167
3 238 118 239
3 167 239 103
3 102 240 161
3 240 241 161
3 240 119 241
3 161 241 66
3 101 242 158
3 242 243 158
3 242 116 243
3 158 243 80
3 92 244 246
3 244 245 246
3 244 125 245
3 246 245 106
3 94 247 249
3 247 248 249
3 247 127 248
3 249 248 107
3 104 250 252
3 250 251 252
3 250 124 251
3 252 251 93
3 105 253 255
3 253 254 255
3 253 126 254
3 255 254 95
3 42 222 221
3 222 256 221
3 222 110 256
3 221 256 109
3 27 223 220
3 223 257 220
3 223 111 257
3 220 257 108
3 88 258 89
3 258 236 89
3 258 117 236
3 89 236 90
3 74 259 75
3 259 238 75
3 259 118 238
3 75 238 76
3 80 243 81
3 243 260 81
3 243 116 260
3 81 260 82
3 66 241 67
3 241 261 67
3 241 119 261
3 67 261 68
3 117 262 263
3 262 244 263
3 262 125 244
3 263 244 92
3 118 264 265
3 264 247 265
3 264 127 247
3 265 247 94
3 93 251 267
3 251 266 267
3 251 124 266
3 267 266 116
3 95 254 269
3 254 268 269
3 254 126 268
3 269 268 119
3 14 216 13
3 216 270 13
3 216 112 270
3 13 270 12
3 59 217 58
3 217 271 58
3 217 114 271
3 58 271 57
3 57 272 56
3 272 219 56
3 272 115 219
3 56 219 55
3 12 273 11
3 273 218 11
3 273 113 218
3 11 218 10
3 112 132 270
3 132 273 270
3 132 113 273
3 270 273 12
3 114 129 271
3 129 272 271
3 129 115 272
3 271 272 57
3 109 256 170
3 256 169 170
3 256 110 169
3 170 169 4
3 108 257 171
3 257 168 171
3 257 111 168
3 171 168 78
3 93 267 197
3 267 242 197
3 267 116 242
3 197 242 101
3 100 237 196
3 237 263 196
3 237 117 263
3 196 263 92
3 95 269 198
3 269 240 198
3 269 119 240
3 198 240 102
3 103 239 199
3 239 265 199
3 239 118 265
3 199 265 94
3 33 231 172
3 231 274 172
3 231 122 274
3 172 274 93
3 48 234 178
3 234 275 178
3 234 123 275
3 178 275 95
3 92 276 177
3 276 226 177
3 276 120 226
3 177 226 36
3 94 277 175
3 277 229 175
3 277 121 229
3 175 229 21
3 106 245 201
3 245 144 201
3 245 125 144
3 201 144 96
3 99 151 202
3 151 250 202
3 151 124 250
3 202 250 104
3 107 248 205
3 248 146 205
3 248 127 146
3 205 146 97
3 98 149 206
3 149 253 206
3 149 126 253
3 206 253 105
3 63 225 215
3 225 278 215
3 225 121 278
3 215 278 107
3 18 228 214
3 228 279 214
3 228 120 279
3 214 279 106
3 105 280 213
3 280 235 213
3 280 123 235
3 213 235 51
3 104 281 212
3 281 232 212
3 281 122 232
3 212 232 6
3 93 274 252
3 274 281 252
3 274 122 281
3 252 281 104
3 95 275 255
3 275 280 255
3 275 123 280
3 255 280 105
3 107 278 249
3 278 277 249
3 278 121 277
3 249 277 94
3 106 279 246
3 279 276 246
3 279 120 276
3 246 276 92
3 116 266 260
3 266 150 260
3 266 124 150
3 260 150 82
3 88 145 258
3 145 262 258
3 145 125 262
3 258 262 117
3 119 268 261
3 268 148 261
3 268 126 148
3 261 148 68
3 74 147 259
3 147 264 259
3 147 127 264
3 259 264 118

CELL_TYPES 488
3
3
3
3
3
3
3
3
3
3
3
3
3
3
3
3
5
5
5
5
5
5
5
5
5
5
5
5
5
5
5
5
5
5
5
5
5
5
5
5
5
5
5
5
5
5
5
5
5
5
5
5
5
5
5
5
5
5
5
5
5
5
5
5
5
5
5
5
5
5
5
5
5
5
5
5
5
5
5
5
5
5
5
5
5
5
5
5
5
5
5
5
5
5
5
5
5
5
5
5
5
5
5
5
5
5
5
5
5
5
5
5
5
5
5
5
5
5
5
5
5
5
5
5
5
5
5
5
5
5
5
5
5
5
5
5
5
5
5
5
5
5
5
5
5
5
5
5
5
5
5
5
5
5
5
5
5
5
5
5
5
5
5
5
5
5
5
5
5
5
5
5
5
5
5
5
5
5
5
5
5
5
5
5
5
5
5
5
5
5
5
5
5
5
5
5
5
5
5
5
5
5
5
5
5
5
5
5
5
5
5
5
5
5
5
5
5
5
5
5
5
5
5
5
5
5
5
5
5
5
5
5
5
5
5
5
5
5
5
5
5
5
5
5
5
5
5
5
5
5
5
5
5
5
5
5
5
5
5
5
5
5
5
5
5
5
5
5
5
5
5
5
5
5
5
5
5
5
5
5
5
5
5
5
5
5
5
5
5
5
5
5
5
5
5
5
5
5
5
5
5
5
5
5
5
5
5
5
5
5
5
5
5
5
5
5
5
5
5
5
5
5
5
5
5
5
5
5
5
5
5
5
5
5
5
5
5
5
5
5
5
5
5
5
5
5
5
5
5
5
5
5
5
5
5
5
5
5
5
5
5
5
5
5
5
5
5
5
5
5
5
5
5
5
5
5
5
5
5
5
5
5
5
5
5
5
5
5
5
5
5
5
5
5
5
5
5
5
5
5
5
5
5
5
5
5
5
5
5
5
5
5
5
5
5
5
5
5
5
5
5
5
5
5
5
5
5
5
5
5
5
5
5
5
5
5
5
5
5
5
5
5
5
5
5
5
5
5
5
5
5
5
5
5
5
5
5
5
5
5
5
5
5
5
5
5
5
5
5
5
5
5
5
5
5
5
5
5
5
5
5
5
5
5
5
5
5
5

CELL_DATA 488
SCALARS CellEntityIds int 1
LOOKUP_TABLE default
1
1
1
1
1
1
1
1
1
1
1
1
1
1
1
1
1
1
1
1
1
1
1
1
1
1
1
1
1
1
1
1
1
1
1
1
1
1
1
1
1
1
1
1
1
1
1
1
1
1
1
1
1
1
1
1
1
1
1
1
1
1
1
1
1
1
1
1
1
1
1
1
1
1
1
1
1
1
1
1
1
1
1
1
1
1
1
1
1
1
1
1
1
1
1
1
1
1
1
1
1
1
1
1
1
1
1
1
1
1
1
1
1
1
1
1
1
1
1
1
1
1
1
1
1
1
1
1
1
1
1
1
1
1
1
1
1
1
1
1
1
1
1
1
1
1
1
1
1
1
1
1
1
1
1
1
1
1
1
1
1
1
1
1
1
1
1
1
1
1
1
1
1
1
1
1
1
1
1
1
1
1
1
1
1
1
1
1
1
1
1
1
1
1
1
1
1
1
1
1
1
1
1
1
1
1
1
1
1
1
1
1
1
1
1
1
1
1
1
1
1
1
1
1
1
1
1
1
1
1
1
1
1
1
1
1
1
1
1
1
1
1
1
1
1
1
1
1
1
1
1
1
1
1
1
1
1
1
1
1
1
1
1
1
1
1
1
1
1
1
1
1
1
1
1
1
1
1
1
1
1
1
1
1
1
1
1
1
1
1
1
1
1
1
1
1
1
1
1
1
1
1
1
1
1
1
1
1
1
1
1
1
1
1
1
1
1
1
1
1
1
1
1
1
1
1
1
1
1
1
1
1
1
1
1
1
1
1
1
1
1
1
1
1
1
1
1
1
1
1
1
1
1
1
1
1
1
1
1
1
1
1
1
1
1
1
1
1
1
1
1
1
1
1
1
1
1
1
1
1
1
1
1
1
1
1
1
1
1
1
1
1
1
1
1
1
1
1
1
1
1
1
1
1
1
1
1
1
1
1
1
1
1
1
1
1
1
1
1
1
1
1
1
1
1
1
1
1
1
1
1
1
1
1
1
1
1
1
1
1
1
1
1
1
1
1
1
1
1
1
1
1
1
1
1
1
1
1
1
1
1
1
1
1
1
1
1
1
1
1
1
1
1
1
1
1
1
1
1
1
1
1
1
1
1
1
1
1
