$MeshFormat
4.1 0 8
$EndMeshFormat
$PhysicalNames
1
1 1 "edge1"
$EndPhysicalNames
$Entities
5 5 1 0
1 0 0 0 0 
2 1 0 0 0 
3 0 1 0 0 
4 1 1 0 0 
5 0.8 0.5 0 0 
1 -9.999999994736442e-08 -1e-07 -1e-07 1.0000001 1e-07 1e-07 1 1 2 1 -2 
2 -1e-07 -9.999999994736442e-08 -1e-07 1e-07 1.0000001 1e-07 0 2 3 -1 
3 0.9999999000000001 -9.999999994736442e-08 -1e-07 1.0000001 1.0000001 1e-07 0 2 2 -4 
4 -9.999999994736442e-08 0.9999999000000001 -1e-07 1.0000001 1.0000001 1e-07 0 2 4 -3 
5 0.1999999 0.1999999 -1e-07 0.8000001 0.8000001 1e-07 0 2 5 -5 
40 -9.999999994736442e-08 -9.999999994736442e-08 -1e-07 1.0000001 1.0000001 1e-07 1 1 5 1 3 4 2 -5 
$EndEntities
$Nodes
11 282 1 282
0 1 0 1
1
0 0 0
0 2 0 1
2
1 0 0
0 3 0 1
3
0 1 0
0 4 0 1
4
1 1 0
0 5 0 1
5
0.8 0.5 0
1 1 0 15
6
7
8
9
10
11
12
13
14
15
16
17
18
19
20
0.06249999999999992 0 0
0.1249999999999998 0 0
0.1874999999999998 0 0
0.2499999999999998 0 0
0.3124999999999996 0 0
0.3749999999999994 0 0
0.4374999999999991 0 0
0.4999999999999988 0 0
0.5624999999999988 0 0
0.6249999999999988 0 0
0.687499999999999 0 0
0.7499999999999991 0 0
0.8124999999999993 0 0
0.8749999999999994 0 0
0.9374999999999997 0 0
1 2 0 15
21
22
23
24
25
26
27
28
29
30
31
32
33
34
35
0 0.9375000000000001 0
0 0.8750000000000001 0
0 0.8125000000000002 0
0 0.7500000000000002 0
0 0.6875000000000004 0
0 0.6250000000000007 0
0 0.5625000000000009 0
0 0.5000000000000011 0
0 0.4375000000000012 0
0 0.3750000000000012 0
0 0.312500000000001 0
0 0.2500000000000009 0
0 0.1875000000000007 0
0 0.1250000000000006 0
0 0.06250000000000033 0
1 3 0 15
36
37
38
39
40
41
42
43
44
45
46
47
48
49
50
1 0.06249999999999992 0
1 0.1249999999999998 0
1 0.1874999999999998 0
1 0.2499999999999998 0
1 0.3124999999999996 0
1 0.3749999999999994 0
1 0.4374999999999991 0
1 0.4999999999999988 0
1 0.5624999999999988 0
1 0.6249999999999988 0
1 0.687499999999999 0
1 0.7499999999999991 0
1 0.8124999999999993 0
1 0.8749999999999994 0
1 0.9374999999999997 0
1 4 0 15
51
52
53
54
55
56
57
58
59
60
61
62
63
64
65
0.9375000000000001 1 0
0.8750000000000001 1 0
0.8125000000000002 1 0
0.7500000000000002 1 0
0.6875000000000004 1 0
0.6250000000000007 1 0
0.5625000000000009 1 0
0.5000000000000011 1 0
0.4375000000000012 1 0
0.3750000000000012 1 0
0.312500000000001 1 0
0.2500000000000009 1 0
0.1875000000000007 1 0
0.1250000000000006 1 0
0.06250000000000033 1 0
1 5 0 27
66
67
68
69
70
71
72
73
74
75
76
77
78
79
80
81
82
83
84
85
86
87
88
89
90
91
92
0.7924783736545471 0.5667562801868944 0
0.7702906603707257 0.6301651217352675 0
0.7345494447404088 0.6870469405576203 0
0.6870469405576198 0.7345494447404091 0
0.6301651217352671 0.7702906603707259 0
0.5667562801868938 0.7924783736545471 0
0.4999999999999995 0.8 0
0.4332437198131051 0.7924783736545469 0
0.3698348782647319 0.7702906603707254 0
0.3129530594423792 0.7345494447404084 0
0.2654505552595904 0.6870469405576193 0
0.2297093396292738 0.6301651217352665 0
0.2075216263454527 0.5667562801868933 0
0.2 0.4999999999999988 0
0.2075216263454532 0.4332437198131044 0
0.2297093396292749 0.3698348782647313 0
0.2654505552595922 0.3129530594423786 0
0.3129530594423816 0.2654505552595898 0
0.3698348782647342 0.2297093396292735 0
0.4332437198131072 0.2075216263454526 0
0.5000000000000016 0.2 0
0.5667562801868956 0.2075216263454532 0
0.6301651217352684 0.2297093396292747 0
0.6870469405576206 0.2654505552595915 0
0.7345494447404093 0.3129530594423803 0
0.7702906603707258 0.3698348782647327 0
0.7924783736545471 0.4332437198131059 0
2 40 0 190
93
94
95
96
97
98
99
100
101
102
103
104
105
106
107
108
109
110
111
112
113
114
115
116
117
118
119
120
121
122
123
124
125
126
127
128
129
130
131
132
133
134
135
136
137
138
139
140
141
142
143
144
145
146
147
148
149
150
151
152
153
154
155
156
157
158
159
160
161
162
163
164
165
166
167
168
169
170
171
172
173
174
175
176
177
178
179
180
181
182
183
184
185
186
187
188
189
190
191
192
193
194
195
196
197
198
199
200
201
202
203
204
205
206
207
208
209
210
211
212
213
214
215
216
217
218
219
220
221
222
223
224
225
226
227
228
229
230
231
232
233
234
235
236
237
238
239
240
241
242
243
244
245
246
247
248
249
250
251
252
253
254
255
256
257
258
259
260
261
262
263
264
265
266
267
268
269
270
271
272
273
274
275
276
277
278
279
280
281
282
0.8808644027755217 0.1855240094040315 0
0.1191355972244781 0.185524009404032 0
0.1191355972244783 0.8144759905959686 0
0.8808644027755219 0.814475990595968 0
0.6797317043461891 0.1196661615889354 0
0.320268295653811 0.8803338384110646 0
0.6797317043461898 0.8803338384110648 0
0.3202682956538106 0.1196661615889349 0
0.8917047114003339 0.3121901849779933 0
0.1082952885996665 0.3121901849779947 0
0.8917047114003335 0.6878098150220053 0
0.1082952885996661 0.6878098150220067 0
0.1918258485448096 0.09437967982681816 0
0.8081741514551906 0.9056203201731818 0
0.8081741514551898 0.09437967982681827 0
0.1918258485448103 0.9056203201731817 0
0.1000000000000007 0.5625000000000009 0
0.8999999999999997 0.4374999999999991 0
0.9000000000000004 0.5624999999999988 0
0.0999999999999992 0.4375000000000012 0
0.5403719507243647 0.1048503676730842 0
0.4337767932382561 0.0864076311214943 0
0.4596280492756355 0.8951496323269158 0
0.5662232067617442 0.9135923688785056 0
0.2031549150433976 0.2606435255609815 0
0.7968450849566029 0.2606435255609818 0
0.2031549150433971 0.739356474439018 0
0.7968450849566029 0.739356474439018 0
0.9091300919306176 0.09086990806938239 0
0.09086990806938244 0.9091300919306177 0
0.09086990806938183 0.09086990806938189 0
0.9091300919306182 0.9091300919306181 0
0.2341000423644645 0.1808714187767823 0
0.7658999576355354 0.1808714187767827 0
0.7658999576355359 0.8191285812232174 0
0.2341000423644646 0.8191285812232174 0
0.566489743474319 0.8530353712665264 0
0.5129256280186898 0.9043710006027107 0
0.5131921647312647 0.8438140029907315 0
0.4335102565256816 0.1469646287334734 0
0.4870743719813105 0.09562899939728925 0
0.486807835268736 0.1561859970092684 0
0.3166106775480961 0.1925583584242623 0
0.3767560077334589 0.1635938939671937 0
0.6833893224519048 0.8074416415757371 0
0.6232439922665418 0.8364061060328061 0
0.6232439922665424 0.1635938939671943 0
0.683389322451905 0.1925583584242634 0
0.376756007733458 0.8364061060328059 0
0.3166106775480951 0.8074416415757365 0
0.4464358845443703 0.8438140029907314 0
0.5535641154556302 0.1561859970092687 0
0.7228158309908623 0.150268790182859 0
0.7264734490965781 0.2231609870181871 0
0.2771841690091378 0.849731209817141 0
0.2735265509034219 0.7768390129818129 0
0.7264734490965779 0.7768390129818132 0
0.7228158309908628 0.8497312098171411 0
0.273526550903423 0.223160987018186 0
0.2771841690091376 0.1502687901828587 0
0.3770225444460334 0.1030368963552146 0
0.622977455553967 0.8969631036447852 0
0.610051827535277 0.1122582646310098 0
0.3899481724647232 0.8877417353689903 0
0.164854669814637 0.4036674391323662 0
0.1041476442998329 0.3748450924889979 0
0.1690023141144707 0.341012531621363 0
0.8351453301853631 0.5963325608676332 0
0.895852355700167 0.6251549075110021 0
0.8309976858855296 0.6589874683786364 0
0.8958523557001667 0.3748450924889962 0
0.8351453301853627 0.4036674391323659 0
0.8309976858855299 0.341012531621363 0
0.1041476442998334 0.6251549075110038 0
0.1648546698146373 0.5963325608676338 0
0.16900231411447 0.6589874683786365 0
0.1499999999999996 0.46875 0
0.8500000000000002 0.5312499999999994 0
0.8499999999999999 0.4687499999999996 0
0.1500000000000004 0.5312499999999999 0
0.05956779861223904 0.1552620047020163 0
0.05956779861223904 0.2177620047020165 0
0.05956779861223915 0.7822379952979844 0
0.05956779861223915 0.8447379952979843 0
0.9404322013877608 0.2177620047020157 0
0.9404322013877608 0.1552620047020157 0
0.940432201387761 0.8447379952979837 0
0.940432201387761 0.7822379952979835 0
0.7148658521730942 0.0598330807944677 0
0.652365852173094 0.0598330807944677 0
0.347634147826905 0.05983308079446747 0
0.2851341478269052 0.05983308079446747 0
0.2851341478269059 0.9401669192055323 0
0.3476341478269061 0.9401669192055323 0
0.6523658521730952 0.9401669192055324 0
0.7148658521730951 0.9401669192055324 0
0.9458523557001668 0.7189049075110022 0
0.9458523557001668 0.6564049075110021 0
0.05414764429983326 0.2810950924889978 0
0.05414764429983326 0.3435950924889979 0
0.945852355700167 0.3435950924889963 0
0.945852355700167 0.2810950924889966 0
0.0541476442998331 0.6564049075110037 0
0.0541476442998331 0.7189049075110034 0
0.8862845570879279 0.2488570971910125 0
0.1137154429120724 0.2488570971910133 0
0.8862845570879276 0.7511429028089867 0
0.1137154429120722 0.7511429028089877 0
0.7790870757275945 0.04718983991340914 0
0.7439529279006895 0.1070229207078768 0
0.2560470720993101 0.1070229207078766 0
0.2209129242724047 0.04718983991340908 0
0.2209129242724056 0.9528101600865908 0
0.2560470720993106 0.8929770792921232 0
0.7439529279006902 0.8929770792921233 0
0.7790870757275954 0.9528101600865909 0
0.9499999999999998 0.4062499999999992 0
0.9500000000000002 0.5937499999999988 0
0.05000000000000038 0.5937500000000008 0
0.0499999999999996 0.4062500000000012 0
0.1584129242724047 0.04718983991340908 0
0.8415870757275954 0.9528101600865909 0
0.8415870757275946 0.04718983991340914 0
0.1584129242724054 0.9528101600865908 0
0.5826859753621818 0.0524251838365421 0
0.4173140246378184 0.9475748161634578 0
0.4043883966191278 0.04320381556074715 0
0.5956116033808724 0.9567961844392527 0
0.05000000000000038 0.531250000000001 0
0.9499999999999998 0.468749999999999 0
0.9500000000000002 0.5312499999999988 0
0.0499999999999996 0.4687500000000012 0
0.04543495403469122 0.9545650459653088 0
0.1079349540346915 0.9545650459653088 0
0.9545650459653088 0.1079349540346911 0
0.9545650459653088 0.04543495403469122 0
0.8920650459653086 0.04543495403469122 0
0.04543495403469122 0.8920650459653089 0
0.04543495403469089 0.04543495403469094 0
0.04543495403469089 0.1079349540346912 0
0.1079349540346908 0.04543495403469094 0
0.9545650459653091 0.954565045965309 0
0.9545650459653091 0.8920650459653088 0
0.8920650459653092 0.954565045965309 0
0.7835678726636643 0.3152392019128573 0
0.8442748981784683 0.2864168552694876 0
0.2164321273363354 0.6847607980871423 0
0.1557251018215317 0.7135831447305123 0
0.8442748981784681 0.7135831447305117 0
0.7835678726636643 0.6847607980871427 0
0.1557251018215321 0.2864168552694881 0
0.2164321273363362 0.3152392019128564 0
0.8233821802055286 0.1831977140904071 0
0.7870370545453627 0.1376255493018005 0
0.8445192771153558 0.1399518446154249 0
0.1766178197944714 0.8168022859095929 0
0.2129629454546375 0.8623744506981995 0
0.1554807228846443 0.8600481553845751 0
0.212962945454637 0.1376255493018003 0
0.1766178197944713 0.1831977140904072 0
0.1554807228846439 0.1399518446154251 0
0.7870370545453632 0.8623744506981996 0
0.8233821802055289 0.8168022859095927 0
0.8445192771153562 0.8600481553845749 0
0.9 0.4999999999999989 0
0.09999999999999998 0.500000000000001 0
0.7419460127571118 0.2630470404102866 0
0.2580539872428881 0.7369529595897132 0
0.2580539872428896 0.2630470404102856 0
0.7419460127571114 0.7369529595897135 0
0.7813725212960692 0.2207574721688823 0
0.8388547438660623 0.2230837674825067 0
0.2186274787039308 0.7792425278311177 0
0.1611452561339377 0.7769162325174933 0
0.2186274787039311 0.2207574721688819 0
0.1611452561339379 0.2230837674825068 0
0.7813725212960694 0.7792425278311177 0
0.8388547438660624 0.776916232517493 0
0.5201859753621818 0.0524251838365421 0
0.4798140246378184 0.9475748161634578 0
0.5331116033808727 0.9567961844392527 0
0.4668883966191275 0.04320381556074715 0
0.10500275264693 0.138196958736707 0
0.8949972473530701 0.8618030412632931 0
0.8949972473530696 0.138196958736707 0
0.1050027526469304 0.8618030412632931 0
0.1413478783070964 0.9073752060518997 0
0.8586521216929037 0.0926247939481003 0
0.8586521216929044 0.9073752060519 0
0.1413478783070957 0.09262479394810003 0
$EndNodes
$Elements
2 488 1 493
1 1 1 16
478 1 6 
479 6 7 
480 7 8 
481 8 9 
482 9 10 
483 10 11 
484 11 12 
485 12 13 
486 13 14 
487 14 15 
488 15 16 
489 16 17 
490 17 18 
491 18 19 
492 19 20 
493 20 2 
2 40 2 472
1 71 129 131 
2 129 130 131 
3 129 116 130 
4 131 130 115 
5 85 132 134 
6 132 133 134 
7 132 114 133 
8 134 133 113 
9 83 135 84 
10 135 136 84 
11 135 100 136 
12 84 136 85 
13 69 137 70 
14 137 138 70 
15 137 99 138 
16 70 138 71 
17 87 139 88 
18 139 140 88 
19 139 97 140 
20 88 140 89 
21 73 141 74 
22 141 142 74 
23 141 98 142 
24 74 142 75 
25 71 131 72 
26 131 143 72 
27 131 115 143 
28 72 143 73 
29 85 134 86 
30 134 144 86 
31 134 113 144 
32 86 144 87 
33 97 145 140 
34 145 146 140 
35 145 126 146 
36 140 146 89 
37 98 147 142 
38 147 148 142 
39 147 128 148 
40 142 148 75 
41 69 149 137 
42 149 150 137 
43 149 127 150 
44 137 150 99 
45 83 151 135 
46 151 152 135 
47 151 125 152 
48 135 152 100 
49 100 153 136 
50 153 132 136 
51 153 114 132 
52 136 132 85 
53 99 154 138 
54 154 129 138 
55 154 116 129 
56 138 129 71 
57 87 144 139 
58 144 155 139 
59 144 113 155 
60 139 155 97 
61 73 143 141 
62 143 156 141 
63 143 115 156 
64 141 156 98 
65 81 157 159 
66 157 158 159 
67 157 112 158 
68 159 158 102 
69 67 160 162 
70 160 161 162 
71 160 111 161 
72 162 161 103 
73 101 163 165 
74 163 164 165 
75 163 110 164 
76 165 164 91 
77 104 166 168 
78 166 167 168 
79 166 109 167 
80 168 167 77 
81 79 169 80 
82 169 157 80 
83 169 112 157 
84 80 157 81 
85 5 170 66 
86 170 160 66 
87 170 111 160 
88 66 160 67 
89 91 164 92 
90 164 171 92 
91 164 110 171 
92 92 171 5 
93 77 167 78 
94 167 172 78 
95 167 109 172 
96 78 172 79 
97 34 173 33 
98 173 174 33 
99 173 94 174 
100 33 174 32 
101 24 175 23 
102 175 176 23 
103 175 95 176 
104 23 176 22 
105 39 177 38 
106 177 178 38 
107 177 93 178 
108 38 178 37 
109 49 179 48 
110 179 180 48 
111 179 96 180 
112 48 180 47 
113 17 181 16 
114 181 182 16 
115 181 97 182 
116 16 182 15 
117 11 183 10 
118 183 184 10 
119 183 100 184 
120 10 184 9 
121 62 185 61 
122 185 186 61 
123 185 98 186 
124 61 186 60 
125 56 187 55 
126 187 188 55 
127 187 99 188 
128 55 188 54 
129 47 189 46 
130 189 190 46 
131 189 103 190 
132 46 190 45 
133 32 191 31 
134 191 192 31 
135 191 102 192 
136 31 192 30 
137 41 193 40 
138 193 194 40 
139 193 101 194 
140 40 194 39 
141 26 195 25 
142 195 196 25 
143 195 104 196 
144 25 196 24 
145 39 194 177 
146 194 197 177 
147 194 101 197 
148 177 197 93 
149 94 198 174 
150 198 191 174 
151 198 102 191 
152 174 191 32 
153 96 199 180 
154 199 189 180 
155 199 103 189 
156 180 189 47 
157 24 196 175 
158 196 200 175 
159 196 104 200 
160 175 200 95 
161 17 201 181 
162 201 202 181 
163 201 107 202 
164 181 202 97 
165 100 203 184 
166 203 204 184 
167 203 105 204 
168 184 204 9 
169 62 205 185 
170 205 206 185 
171 205 108 206 
172 185 206 98 
173 99 207 188 
174 207 208 188 
175 207 106 208 
176 188 208 54 
177 41 209 193 
178 209 163 193 
179 209 110 163 
180 193 163 101 
181 103 161 190 
182 161 210 190 
183 161 111 210 
184 190 210 45 
185 26 211 195 
186 211 166 195 
187 211 109 166 
188 195 166 104 
189 102 158 192 
190 158 212 192 
191 158 112 212 
192 192 212 30 
193 9 204 8 
194 204 213 8 
195 204 105 213 
196 8 213 7 
197 54 208 53 
198 208 214 53 
199 208 106 214 
200 53 214 52 
201 19 215 18 
202 215 201 18 
203 215 107 201 
204 18 201 17 
205 64 216 63 
206 216 205 63 
207 216 108 205 
208 63 205 62 
209 97 155 182 
210 155 217 182 
211 155 113 217 
212 182 217 15 
213 98 156 186 
214 156 218 186 
215 156 115 218 
216 186 218 60 
217 11 219 183 
218 219 153 183 
219 219 114 153 
220 183 153 100 
221 56 220 187 
222 220 154 187 
223 220 116 154 
224 187 154 99 
225 28 221 27 
226 221 211 27 
227 221 109 211 
228 27 211 26 
229 43 222 42 
230 222 209 42 
231 222 110 209 
232 42 209 41 
233 45 210 44 
234 210 223 44 
235 210 111 223 
236 44 223 43 
237 30 212 29 
238 212 224 29 
239 212 112 224 
240 29 224 28 
241 3 225 65 
242 225 226 65 
243 225 122 226 
244 65 226 64 
245 37 227 36 
246 227 228 36 
247 227 121 228 
248 36 228 2 
249 2 228 20 
250 228 229 20 
251 228 121 229 
252 20 229 19 
253 22 230 21 
254 230 225 21 
255 230 122 225 
256 21 225 3 
257 1 231 35 
258 231 232 35 
259 231 123 232 
260 35 232 34 
261 7 233 6 
262 233 231 6 
263 233 123 231 
264 6 231 1 
265 4 234 50 
266 234 235 50 
267 234 124 235 
268 50 235 49 
269 52 236 51 
270 236 234 51 
271 236 124 234 
272 51 234 4 
273 91 237 165 
274 237 238 165 
275 237 118 238 
276 165 238 101 
277 77 239 168 
278 239 240 168 
279 239 119 240 
280 168 240 104 
281 103 241 162 
282 241 242 162 
283 241 120 242 
284 162 242 67 
285 102 243 159 
286 243 244 159 
287 243 117 244 
288 159 244 81 
289 93 245 247 
290 245 246 247 
291 245 126 246 
292 247 246 107 
293 95 248 250 
294 248 249 250 
295 248 128 249 
296 250 249 108 
297 105 251 253 
298 251 252 253 
299 251 125 252 
300 253 252 94 
301 106 254 256 
302 254 255 256 
303 254 127 255 
304 256 255 96 
305 43 223 222 
306 223 257 222 
307 223 111 257 
308 222 257 110 
309 28 224 221 
310 224 258 221 
311 224 112 258 
312 221 258 109 
313 89 259 90 
314 259 237 90 
315 259 118 237 
316 90 237 91 
317 75 260 76 
318 260 239 76 
319 260 119 239 
320 76 239 77 
321 81 244 82 
322 244 261 82 
323 244 117 261 
324 82 261 83 
325 67 242 68 
326 242 262 68 
327 242 120 262 
328 68 262 69 
329 118 263 264 
330 263 245 264 
331 263 126 245 
332 264 245 93 
333 119 265 266 
334 265 248 266 
335 265 128 248 
336 266 248 95 
337 94 252 268 
338 252 267 268 
339 252 125 267 
340 268 267 117 
341 96 255 270 
342 255 269 270 
343 255 127 269 
344 270 269 120 
345 15 217 14 
346 217 271 14 
347 217 113 271 
348 14 271 13 
349 60 218 59 
350 218 272 59 
351 218 115 272 
352 59 272 58 
353 58 273 57 
354 273 220 57 
355 273 116 220 
356 57 220 56 
357 13 274 12 
358 274 219 12 
359 274 114 219 
360 12 219 11 
361 113 133 271 
362 133 274 271 
363 133 114 274 
364 271 274 13 
365 115 130 272 
366 130 273 272 
367 130 116 273 
368 272 273 58 
369 110 257 171 
370 257 170 171 
371 257 111 170 
372 171 170 5 
373 109 258 172 
374 258 169 172 
375 258 112 169 
376 172 169 79 
377 94 268 198 
378 268 243 198 
379 268 117 243 
380 198 243 102 
381 101 238 197 
382 238 264 197 
383 238 118 264 
384 197 264 93 
385 96 270 199 
386 270 241 199 
387 270 120 241 
388 199 241 103 
389 104 240 200 
390 240 266 200 
391 240 119 266 
392 200 266 95 
393 34 232 173 
394 232 275 173 
395 232 123 275 
396 173 275 94 
397 49 235 179 
398 235 276 179 
399 235 124 276 
400 179 276 96 
401 93 277 178 
402 277 227 178 
403 277 121 227 
404 178 227 37 
405 95 278 176 
406 278 230 176 
407 278 122 230 
408 176 230 22 
409 107 246 202 
410 246 145 202 
411 246 126 145 
412 202 145 97 
413 100 152 203 
414 152 251 203 
415 152 125 251 
416 203 251 105 
417 108 249 206 
418 249 147 206 
419 249 128 147 
420 206 147 98 
421 99 150 207 
422 150 254 207 
423 150 127 254 
424 207 254 106 
425 64 226 216 
426 226 279 216 
427 226 122 279 
428 216 279 108 
429 19 229 215 
430 229 280 215 
431 229 121 280 
432 215 280 107 
433 106 281 214 
434 281 236 214 
435 281 124 236 
436 214 236 52 
437 105 282 213 
438 282 233 213 
439 282 123 233 
440 213 233 7 
441 94 275 253 
442 275 282 253 
443 275 123 282 
444 253 282 105 
445 96 276 256 
446 276 281 256 
447 276 124 281 
448 256 281 106 
449 108 279 250 
450 279 278 250 
451 279 122 278 
452 250 278 95 
453 107 280 247 
454 280 277 247 
455 280 121 277 
456 247 277 93 
457 117 267 261 
458 267 151 261 
459 267 125 151 
460 261 151 83 
461 89 146 259 
462 146 263 259 
463 146 126 263 
464 259 263 118 
465 120 269 262 
466 269 149 262 
467 269 127 149 
468 262 149 69 
469 75 148 260 
470 148 265 260 
471 148 128 265 
472 260 265 119 
$EndElements
