# vtk DataFile Version 2.0
Example 7, Created by Gmsh 4.14.1 
ASCII
DATASET UNSTRUCTURED_GRID
POINTS 353 double
0 0 0
1 0 0
1 1 0
0 1 0
0.5 0.5 0
0.5 0.9 0
0.06249999999999992 0 0
0.1249999999999998 0 0
0.1874999999999998 0 0
0.2499999999999998 0 0
0.3124999999999996 0 0
0.3749999999999994 0 0
0.4374999999999991 0 0
0.4999999999999988 0 0
0.5624999999999988 0 0
0.6249999999999988 0 0
0.687499999999999 0 0
0.7499999999999991 0 0
0.8124999999999993 0 0
0.8749999999999994 0 0
0.9374999999999997 0 0
1 0.06249999999999992 0
1 0.1249999999999998 0
1 0.1874999999999998 0
1 0.2499999999999998 0
1 0.3124999999999996 0
1 0.3749999999999994 0
1 0.4374999999999991 0
1 0.4999999999999988 0
1 0.5624999999999988 0
1 0.6249999999999988 0
1 0.687499999999999 0
1 0.7499999999999991 0
1 0.8124999999999993 0
1 0.8749999999999994 0
1 0.9374999999999997 0
0.9375000000000001 1 0
0.8750000000000001 1 0
0.8125000000000002 1 0
0.7500000000000002 1 0
0.6875000000000004 1 0
0.6250000000000007 1 0
0.5625000000000009 1 0
0.5000000000000011 1 0
0.4375000000000012 1 0
0.3750000000000012 1 0
0.312500000000001 1 0
0.2500000000000009 1 0
0.1875000000000007 1 0
0.1250000000000006 1 0
0.06250000000000033 1 0
0 0.9375000000000001 0
0 0.8750000000000001 0
0 0.8125000000000002 0
0 0.7500000000000002 0
0 0.6875000000000004 0
0 0.6250000000000007 0
0 0.5625000000000009 0
0 0.5000000000000011 0
0 0.4375000000000012 0
0 0.3750000000000012 0
0 0.312500000000001 0
0 0.2500000000000009 0
0 0.1875000000000007 0
0 0.1250000000000006 0
0 0.06250000000000033 0
0.5 0.5666666666666668 0
0.5 0.6333333333333334 0
0.5 0.7000000000000004 0
0.5 0.7666666666666673 0
0.5 0.8333333333333337 0
0.9110398293141606 0.3325031776665407 0
0.304135381754004 0.1310421682186559 0
0.1149270721357797 0.5664008572360311 0
0.5624999999999989 0.1051275079804074 0
0.8917468245269454 0.5624999999999988 0
0.1202318884443931 0.3260380622815441 0
0.1928007459554432 0.8954354548646765 0
0.8893189317614371 0.8007179041523015 0
0.6853515303748469 0.8962637135458297 0
0.8074838880327082 0.1055287581561126 0
0.3072536355794362 0.8908748775923462 0
0.250000000000001 0.7872730274187603 0
0.115811419388829 0.7979999252442439 0
0.1907650080009672 0.6812904920298239 0
0.3098660948846107 0.6832349755972692 0
0.2507824081489093 0.5712230080971762 0
0.191334578913157 0.4523215128769469 0
0.3140387281738604 0.4584568431738624 0
0.2581530337812343 0.3495968089215829 0
0.3827025645875021 0.3382123310270225 0
0.2095965354557479 0.2243984888349584 0
0.3865953482831774 0.5698670150100632 0
0.6151067461862878 0.5658596352086799 0
0.6164371104824564 0.4345081091791068 0
0.7212840268252255 0.4999801929582669 0
0.72035109486816 0.6306287698212873 0
0.7200989339507198 0.3694756626836292 0
0.6166955660156597 0.3043642708650287 0
0.735652785551679 0.2260039801380082 0
0.8245245757594268 0.4388128333382364 0
0.6171649183842993 0.6970324086173791 0
0.7378420192799335 0.7751387383870274 0
0.8281653006930966 0.6702716379719016 0
0.687499999999999 0.1082531754730549 0
0.4361058969589999 0.1117926656698547 0
0.5008181168414942 0.2296894661366095 0
0.3649812803689313 0.7829462965952971 0
0.3836226193928566 0.2148558666940807 0
0.1874999999999997 0.1045833439303623 0
0.5054204537262103 0.3758720185698251 0
0.8800250596927199 0.2050183787850279 0
0.8076676884116847 0.8967690008565079 0
0.1000678686826045 0.1871444059659155 0
0.6057655473856753 0.8159507412900993 0
0.08430069990511518 0.68413825490202 0
0.4071571094048269 0.8752652216391212 0
0.6238633105169102 0.1957988198887042 0
0.08560442343686719 0.4375000000000012 0
0.415610842344713 0.6943630106576185 0
0.5943784944820067 0.9101518818974916 0
0.9084936490538901 0.90849364905389 0
0.09150635094611009 0.9084936490538901 0
0.90849364905389 0.09150635094610993 0
0.09079831911229647 0.09079831911229652 0
0.4158693644301488 0.448457934211183 0
0.806057802099224 0.3095743549628449 0
0.4455392773512074 0.9438163054097803 0
0.7972143645345708 0.5604386868179382 0
0.9285388018178635 0.6853855351402471 0
0.3011322032365615 0.2574602689085665 0
0.9254622459201065 0.4417632022009548 0
0.8437544738627141 0.1552735684705703 0
0.8078389226221995 0.215511179461518 0
0.7715683367921936 0.1657663691470603 0
0.5031192852838522 0.3027807423532173 0
0.4440615091568562 0.3570421747984238 0
0.4417603407144982 0.283950898581816 0
0.1891924611128137 0.3378174356015635 0
0.2247438063471957 0.4009591608992649 0
0.1557832336787751 0.3891797875792455 0
0.8484933100865608 0.8487434525044047 0
0.7727548538458091 0.8359538696217677 0
0.8135804755206852 0.7879283212696644 0
0.3831625919901793 0.2765340988605516 0
0.4422203681171755 0.2222726664153452 0
0.8430414308959719 0.2572963668739364 0
0.7708552938254516 0.2677891675504265 0
0.783003659986515 0.7227051881794644 0
0.8587421162272668 0.7354947710621015 0
0.1384695011750121 0.4449107564384741 0
0.1029181559406301 0.3817690311407727 0
0.0579057096944145 0.7739999626221221 0
0.0579057096944145 0.836499962622122 0
0.1649142119500705 0.2752182755582512 0
0.2338747846184911 0.2869976488782706 0
0.711576392775839 0.1671285778055315 0
0.7474919440163537 0.1068909668145838 0
0.4535785547024135 0.8876326108195607 0
0.4535785547024135 0.8209659441528943 0
0.3026337924952828 0.1942512185636113 0
0.2553643693461547 0.2409293788717625 0
0.2568659586048759 0.1777203285268072 0
0.1828547401423445 0.5688119326666036 0
0.2207737080749382 0.6262567500635001 0
0.1528460400683735 0.6238456746329275 0
0.7465096093932657 0.8965163572011688 0
0.7115967748273901 0.8357012259664285 0
0.1036588851674696 0.853246787149067 0
0.04575317547305502 0.8917468245269451 0
0.5610580098709349 0.3401181447174269 0
0.558756841428577 0.2670268685008191 0
0.1985482677278738 0.1644909163826603 0
0.2458176908770018 0.1178127560745091 0
0.5471892472410034 0.9050759409487459 0
0.547189247241004 0.9550759409487458 0
0.5000000000000006 0.95 0
0.1531308255244684 0.509361185056489 0
0.2210584935310331 0.5117722604870616 0
0.5528827736928377 0.7913087039783833 0
0.5528827736928377 0.8579753706450497 0
0.3423774113147091 0.2361580678013236 0
0.3438790005734303 0.1729490174563684 0
0.6096892472410037 0.9550759409487458 0
0.3860691948868791 0.8291057591172092 0
0.4324906401844656 0.7748064816309822 0
0.600072020933841 0.8630513115937954 0
0.1375328539530412 0.682714373465922 0
0.09961388602044746 0.6252695560690255 0
0.2786268177897185 0.945437438796173 0
0.3411268177897188 0.945437438796173 0
0.4432976741415887 0.6016001741716983 0
0.4432976741415887 0.5349335075050317 0
0.2500271907674397 0.8931551662285113 0
0.2214003729777221 0.9477177274323383 0
0.2214003729777221 0.8413542411417184 0
0.2786268177897187 0.8390739525055533 0
0.3572053724921316 0.8830700496157338 0
0.391078554702414 0.9376326108195606 0
0.5585824591921497 0.6651828709753563 0
0.5585824591921497 0.7318495376420233 0
0.2526866535435087 0.4553891780254047 0
0.2824105681613848 0.5148399256355193 0
0.8585488157066923 0.3210387663146927 0
0.8955324445034403 0.2687607782257843 0
0.6688605686538409 0.4672441510686868 0
0.6681953865057566 0.5329199140834734 0
0.6157719283343721 0.5001838721938933 0
0.6455585388802612 0.8561072274179645 0
0.6718037833328044 0.7955447398385633 0
0.7723117548550733 0.4041442480109328 0
0.7729043012923262 0.4693965131482516 0
0.7206914803879727 0.434727927820948 0
0.8126898326138337 0.6153551623949198 0
0.8444805945307581 0.5614693434089685 0
0.859956062610021 0.6163858189859501 0
0.6761741757836693 0.2651841255015184 0
0.7278758597511994 0.2977398214108187 0
0.6683972499831897 0.3369199667743289 0
0.7208175608466927 0.5653044813897772 0
0.6677289205272239 0.5982442025149836 0
0.6682680222165881 0.401991885931368 0
0.7742581977806282 0.6504502038965945 0
0.7290965570740467 0.7028837541041574 0
0.5582185552412282 0.4672540545895534 0
0.5575533730931439 0.5329298176043399 0
0.6775034688321164 0.7360855735022033 0
0.6687580066262296 0.6638305892193332 0
0.5623407136792022 0.2127441430126569 0
0.620279438266285 0.2500815453768664 0
0.5575533730931439 0.5995964842710066 0
0.616566338249058 0.3694361900220677 0
0.4263481933780171 0.9095407635244508 0
0.4102696386756043 0.9719081527048902 0
0.6161358322852936 0.6314460219130296 0
0.2860958809775473 0.4040268260477227 0
0.1101498785634988 0.2565912341237298 0
0.1548322020691762 0.205771447400437 0
0.1589003729777219 0.9477177274323383 0
0.9446594658807186 0.8378589520761505 0
0.9446594658807186 0.7753589520761504 0
0.1532882136948981 0.739645208637034 0
0.2203825040004841 0.7342817597242921 0
0.182905709694415 0.7926364763315021 0
0.9101428131724044 0.623942767570123 0
0.87835205125548 0.6778285865560743 0
0.8412419440163539 0.05276437907805631 0
0.7787419440163537 0.05276437907805631 0
0.06011594422219657 0.2880190311407725 0
0.06011594422219657 0.3505190311407727 0
0.3074906401844661 0.7851096620070287 0
0.3361174579741838 0.8369105870938216 0
0.3204277991843682 0.3439045699743027 0
0.3483706463806813 0.3983345871004424 0
0.7187499999999991 0.05412658773652745 0
0.6562499999999989 0.05412658773652745 0
0.8108694701469988 0.4996257600780873 0
0.8581357001431861 0.5006564166691176 0
0.1543060826721361 0.8467176900544602 0
0.5937499999999988 0.05256375399020369 0
0.5312499999999989 0.05256375399020369 0
0.9555199146570803 0.35375158883327 0
0.9555199146570803 0.2912515888332702 0
0.9458734122634727 0.5937499999999988 0
0.9458734122634727 0.5312499999999988 0
0.3395676908770017 0.065521084109328 0
0.2770676908770019 0.065521084109328 0
0.0574635360678899 0.5332004286180161 0
0.0574635360678899 0.5957004286180159 0
0.4680529484794994 0.05589633283492734 0
0.4055529484794996 0.05589633283492734 0
0.350317038228519 0.5141619290919628 0
0.3186888782160434 0.5705450115536197 0
0.6551757651874237 0.9481318567729149 0
0.7176757651874235 0.9481318567729149 0
0.6249999999999989 0.1066903417267311 0
0.4993029484794994 0.108460086825131 0
0.370120639356502 0.1214174169442553 0
0.3482307215838941 0.6265509953036662 0
0.28032425151676 0.6272289918472227 0
0.5316590584207466 0.1674084870585084 0
0.4684620069002471 0.1707410659032321 0
0.2503155514427889 0.6822627338135465 0
0.2799330474423058 0.7352540015080148 0
0.5027102268631051 0.4379360092849126 0
0.5609287821043333 0.4051900638744659 0
0.4727696386756042 0.9719081527048902 0
0.2187499999999997 0.05229167196518114 0
0.94001252984636 0.2275091893925139 0
0.94001252984636 0.1650091893925139 0
0.7788338442058425 0.948384500428254 0
0.8413338442058425 0.948384500428254 0
0.4098642581759283 0.1633242661819677 0
0.1562499999999998 0.05229167196518114 0
0.8749934108397667 0.4402880177695956 0
0.9086045352235259 0.5021316011004768 0
0.6114652328849873 0.7564915749537393 0
0.05003393434130227 0.2185722029829582 0
0.8152911889293254 0.3741935941505406 0
0.8677822025367937 0.3856580055023885 0
0.1002657477863235 0.5019504286180161 0
0.337423687626771 0.7330906360962832 0
0.7592491956798981 0.5302094398881025 0
0.3419173839120317 0.2978362999677946 0
0.763078368024972 0.339525008823237 0
0.04215034995255762 0.6545691274510103 0
0.4012323563566631 0.5091624746106231 0
0.4579346822150744 0.4742289671055915 0
0.7587827297013654 0.5955337283196127 0
0.6797580480342946 0.2109014000133562 0
0.6556816552584546 0.1520259976808795 0
0.9182510376171336 0.3871331899337477 0
0.04280221171843357 0.4062500000000012 0
0.05003393434130227 0.156072202982958 0
0.04280221171843357 0.4687500000000012 0
0.9089288667896502 0.7430517196462743 0
0.04575317547305502 0.9542468245269451 0
0.1082531754730554 0.9542468245269451 0
0.9542468245269451 0.954246824526945 0
0.9542468245269451 0.8917468245269446 0
0.8917468245269451 0.954246824526945 0
0.954246824526945 0.04575317547305496 0
0.8917468245269446 0.04575317547305496 0
0.954246824526945 0.1082531754730549 0
0.1437839343413021 0.1458638749481389 0
0.9642694009089318 0.7176927675701231 0
0.5931816552584546 0.1504631639345558 0
0.04539915955614826 0.04539915955614826 0
0.04539915955614826 0.1078991595561485 0
0.1078991595561481 0.04539915955614826 0
0.1421535484507767 0.9019645519592833 0
0.9642694009089318 0.655192767570123 0
0.04215034995255762 0.7170691274510101 0
0.1000560596469721 0.7410690900731319 0
0.9627311229600533 0.4708816011004768 0
0.9627311229600533 0.4083816011004771 0
0.4011030953139453 0.6321150128338409 0
0.3627384686146619 0.6887989931274439 0
0.2796426185088979 0.3035285389150748 0
0.3649540463020046 0.4534573886925227 0
0.4578054211723565 0.663848171995476 0
0.3902960613568222 0.7386546536264578 0
0.4578054211723565 0.730514838662143 0
0.4606449090781795 0.412164976390504 0
0.3992859645088254 0.3933351326191027 0
0.6398650124284269 0.9032077977216607 0
0.8580806687327873 0.9026313249551989 0
0.8942593543733049 0.1482623648655689 0
0.8989062904076636 0.8546057766030957 0
0.8579887685432991 0.09851755455111122 0
0.139149159556148 0.0976908315213294 0
0.09543309389745047 0.138971362539106 0
0.4727696386756037 0.9219081527048901 0

CELLS 640 2560
3 80 132 134
3 132 133 134
3 132 111 133
3 134 133 99
3 106 135 137
3 135 136 137
3 135 110 136
3 137 136 90
3 76 138 140
3 138 139 140
3 138 89 139
3 140 139 87
3 78 141 143
3 141 142 143
3 141 112 142
3 143 142 102
3 90 144 137
3 144 145 137
3 144 108 145
3 137 145 106
3 111 146 133
3 146 147 133
3 146 126 147
3 133 147 99
3 102 148 143
3 148 149 143
3 148 103 149
3 143 149 78
3 87 150 140
3 150 151 140
3 150 118 151
3 140 151 76
3 54 152 53
3 152 153 53
3 152 83 153
3 53 153 52
3 76 154 138
3 154 155 138
3 154 91 155
3 138 155 89
3 99 156 134
3 156 157 134
3 156 104 157
3 134 157 80
3 5 158 70
3 158 159 70
3 158 116 159
3 70 159 69
3 72 160 162
3 160 161 162
3 160 130 161
3 162 161 91
3 73 163 165
3 163 164 165
3 163 86 164
3 165 164 84
3 102 142 167
3 142 166 167
3 142 112 166
3 167 166 79
3 83 168 153
3 168 169 153
3 168 122 169
3 153 169 52
3 98 170 171
3 170 135 171
3 170 110 135
3 171 135 106
3 91 172 162
3 172 173 162
3 172 109 173
3 162 173 72
3 5 174 176
3 174 175 176
3 174 120 175
3 176 175 43
3 73 177 163
3 177 178 163
3 177 87 178
3 163 178 86
3 69 179 70
3 179 180 70
3 179 114 180
3 70 180 5
3 108 181 182
3 181 160 182
3 181 130 160
3 182 160 72
3 43 175 42
3 175 183 42
3 175 120 183
3 42 183 41
3 69 159 185
3 159 184 185
3 159 116 184
3 185 184 107
3 114 186 180
3 186 174 180
3 186 120 174
3 180 174 5
3 84 187 165
3 187 188 165
3 187 115 188
3 165 188 73
3 47 189 46
3 189 190 46
3 189 81 190
3 46 190 45
3 67 191 66
3 191 192 66
3 191 92 192
3 66 192 4
3 77 193 194
3 193 189 194
3 193 81 189
3 194 189 47
3 77 195 193
3 195 196 193
3 195 82 196
3 193 196 81
3 81 197 190
3 197 198 190
3 197 116 198
3 190 198 45
3 67 199 68
3 199 200 68
3 199 101 200
3 68 200 69
3 87 201 178
3 201 202 178
3 201 88 202
3 178 202 86
3 71 203 204
3 203 146 204
3 203 126 146
3 204 146 111
3 94 205 207
3 205 206 207
3 205 95 206
3 207 206 93
3 79 208 167
3 208 209 167
3 208 114 209
3 167 209 102
3 97 210 212
3 210 211 212
3 210 100 211
3 212 211 95
3 103 213 215
3 213 214 215
3 213 128 214
3 215 214 75
3 98 216 218
3 216 217 218
3 216 99 217
3 218 217 97
3 95 219 206
3 219 220 206
3 219 96 220
3 206 220 93
3 94 221 205
3 221 212 205
3 221 97 212
3 205 212 95
3 96 222 223
3 222 148 223
3 222 103 148
3 223 148 102
3 4 224 225
3 224 207 225
3 224 94 207
3 225 207 93
3 96 223 227
3 223 226 227
3 223 102 226
3 227 226 101
3 106 228 171
3 228 229 171
3 228 117 229
3 171 229 98
3 4 225 66
3 225 230 66
3 225 93 230
3 66 230 67
3 94 231 221
3 231 218 221
3 231 98 218
3 221 218 97
3 116 232 198
3 232 233 198
3 232 127 233
3 198 233 45
3 93 234 230
3 234 199 230
3 234 101 199
3 230 199 67
3 87 139 201
3 139 235 201
3 139 89 235
3 201 235 88
3 76 236 154
3 236 237 154
3 236 113 237
3 154 237 91
3 96 227 220
3 227 234 220
3 227 101 234
3 220 234 93
3 49 238 48
3 238 194 48
3 238 77 194
3 48 194 47
3 34 239 33
3 239 240 33
3 239 78 240
3 33 240 32
3 83 241 243
3 241 242 243
3 241 84 242
3 243 242 82
3 75 244 215
3 244 245 215
3 244 129 245
3 215 245 103
3 19 246 18
3 246 247 18
3 246 80 247
3 18 247 17
3 62 248 61
3 248 249 61
3 248 76 249
3 61 249 60
3 82 250 196
3 250 251 196
3 250 107 251
3 196 251 81
3 89 252 235
3 252 253 235
3 252 90 253
3 235 253 88
3 17 254 16
3 254 255 16
3 254 104 255
3 16 255 15
3 75 214 257
3 214 256 257
3 214 128 256
3 257 256 100
3 77 258 195
3 258 243 195
3 258 83 243
3 195 243 82
3 15 259 14
3 259 260 14
3 259 74 260
3 14 260 13
3 26 261 25
3 261 262 25
3 261 71 262
3 25 262 24
3 30 263 29
3 263 264 29
3 263 75 264
3 29 264 28
3 11 265 10
3 265 266 10
3 265 72 266
3 10 266 9
3 58 267 57
3 267 268 57
3 267 73 268
3 57 268 56
3 13 269 12
3 269 270 12
3 269 105 270
3 12 270 11
3 80 157 247
3 157 254 247
3 157 104 254
3 247 254 17
3 88 271 202
3 271 272 202
3 271 92 272
3 202 272 86
3 41 273 40
3 273 274 40
3 273 79 274
3 40 274 39
3 15 255 259
3 255 275 259
3 255 104 275
3 259 275 74
3 74 276 260
3 276 269 260
3 276 105 269
3 260 269 13
3 11 270 265
3 270 277 265
3 270 105 277
3 265 277 72
3 86 272 279
3 272 278 279
3 272 92 278
3 279 278 85
3 74 280 276
3 280 281 276
3 280 106 281
3 276 281 105
3 84 282 242
3 282 283 242
3 282 85 283
3 242 283 82
3 4 284 224
3 284 285 224
3 284 110 285
3 224 285 94
3 45 233 44
3 233 286 44
3 233 127 286
3 44 286 43
3 72 173 266
3 173 287 266
3 173 109 287
3 266 287 9
3 24 288 23
3 288 289 23
3 288 111 289
3 23 289 22
3 39 290 38
3 290 291 38
3 290 112 291
3 38 291 37
3 106 145 281
3 145 292 281
3 145 108 292
3 281 292 105
3 105 292 277
3 292 182 277
3 292 108 182
3 277 182 72
3 9 287 8
3 287 293 8
3 287 109 293
3 8 293 7
3 100 294 257
3 294 295 257
3 294 131 295
3 257 295 75
3 102 209 226
3 209 296 226
3 209 114 296
3 226 296 101
3 84 164 282
3 164 279 282
3 164 86 279
3 282 279 85
3 62 297 248
3 297 236 248
3 297 113 236
3 248 236 76
3 100 298 299
3 298 203 299
3 298 126 203
3 299 203 71
3 73 300 177
3 300 150 177
3 300 118 150
3 177 150 87
3 94 285 231
3 285 170 231
3 285 110 170
3 231 170 98
3 85 301 283
3 301 250 283
3 301 107 250
3 283 250 82
3 100 256 211
3 256 302 211
3 256 128 302
3 211 302 95
3 90 303 144
3 303 181 144
3 303 130 181
3 144 181 108
3 97 304 210
3 304 298 210
3 304 126 298
3 210 298 100
3 73 188 268
3 188 305 268
3 188 115 305
3 268 305 56
3 92 306 192
3 306 307 192
3 306 125 307
3 192 307 4
3 71 204 262
3 204 288 262
3 204 111 288
3 262 288 24
3 96 308 222
3 308 213 222
3 308 128 213
3 222 213 103
3 99 309 156
3 309 310 156
3 309 117 310
3 156 310 104
3 71 311 299
3 311 294 299
3 311 131 294
3 299 294 100
3 79 166 274
3 166 290 274
3 166 112 290
3 274 290 39
3 76 151 249
3 151 312 249
3 151 118 312
3 249 312 60
3 64 313 63
3 313 297 63
3 313 113 297
3 63 297 62
3 58 314 267
3 314 300 267
3 314 118 300
3 267 300 73
3 103 245 149
3 245 315 149
3 245 129 315
3 149 315 78
3 3 316 50
3 316 317 50
3 316 122 317
3 50 317 49
3 2 318 35
3 318 319 35
3 318 121 319
3 35 319 34
3 37 320 36
3 320 318 36
3 320 121 318
3 36 318 2
3 52 169 51
3 169 316 51
3 169 122 316
3 51 316 3
3 1 321 20
3 321 322 20
3 321 123 322
3 20 322 19
3 22 323 21
3 323 321 21
3 323 123 321
3 21 321 1
3 91 237 172
3 237 324 172
3 237 113 324
3 172 324 109
3 78 315 240
3 315 325 240
3 315 129 325
3 240 325 32
3 74 326 280
3 326 228 280
3 326 117 228
3 280 228 106
3 0 327 65
3 327 328 65
3 327 124 328
3 65 328 64
3 7 329 6
3 329 327 6
3 329 124 327
3 6 327 0
3 77 330 258
3 330 168 258
3 330 122 168
3 258 168 83
3 30 331 263
3 331 244 263
3 331 129 244
3 263 244 75
3 54 332 152
3 332 333 152
3 332 115 333
3 152 333 83
3 75 295 264
3 295 334 264
3 295 131 334
3 264 334 28
3 26 335 261
3 335 311 261
3 335 131 311
3 261 311 71
3 101 296 200
3 296 179 200
3 296 114 179
3 200 179 69
3 92 336 278
3 336 337 278
3 336 119 337
3 278 337 85
3 89 338 252
3 338 303 252
3 338 130 303
3 252 303 90
3 88 339 271
3 339 306 271
3 339 125 306
3 271 306 92
3 67 340 191
3 340 336 191
3 340 119 336
3 191 336 92
3 107 341 185
3 341 342 185
3 341 119 342
3 185 342 69
3 98 229 216
3 229 309 216
3 229 117 309
3 216 309 99
3 4 307 284
3 307 343 284
3 307 125 343
3 284 343 110
3 91 161 155
3 161 338 155
3 161 130 338
3 155 338 89
3 56 305 55
3 305 332 55
3 305 115 332
3 55 332 54
3 60 312 59
3 312 314 59
3 312 118 314
3 59 314 58
3 83 333 241
3 333 187 241
3 333 115 187
3 241 187 84
3 107 184 251
3 184 197 251
3 184 116 197
3 251 197 81
3 104 310 275
3 310 326 275
3 310 117 326
3 275 326 74
3 69 342 68
3 342 340 68
3 342 119 340
3 68 340 67
3 110 343 136
3 343 344 136
3 343 125 344
3 136 344 90
3 41 183 273
3 183 345 273
3 183 120 345
3 273 345 79
3 112 346 291
3 346 320 291
3 346 121 320
3 291 320 37
3 111 347 289
3 347 323 289
3 347 123 323
3 289 323 22
3 34 319 239
3 319 348 239
3 319 121 348
3 239 348 78
3 49 317 238
3 317 330 238
3 317 122 330
3 238 330 77
3 95 302 219
3 302 308 219
3 302 128 308
3 219 308 96
3 19 322 246
3 322 349 246
3 322 123 349
3 246 349 80
3 99 147 217
3 147 304 217
3 147 126 304
3 217 304 97
3 85 337 301
3 337 341 301
3 337 119 341
3 301 341 107
3 32 325 31
3 325 331 31
3 325 129 331
3 31 331 30
3 90 344 253
3 344 339 253
3 344 125 339
3 253 339 88
3 28 334 27
3 334 335 27
3 334 131 335
3 27 335 26
3 109 350 293
3 350 329 293
3 350 124 329
3 293 329 7
3 78 348 141
3 348 346 141
3 348 121 346
3 141 346 112
3 113 351 324
3 351 350 324
3 351 124 350
3 324 350 109
3 80 349 132
3 349 347 132
3 349 123 347
3 132 347 111
3 43 286 176
3 286 352 176
3 286 127 352
3 176 352 5
3 64 328 313
3 328 351 313
3 328 124 351
3 313 351 113
3 79 345 208
3 345 186 208
3 345 120 186
3 208 186 114
3 5 352 158
3 352 232 158
3 352 127 232
3 158 232 116

CELL_TYPES 640
5
5
5
5
5
5
5
5
5
5
5
5
5
5
5
5
5
5
5
5
5
5
5
5
5
5
5
5
5
5
5
5
5
5
5
5
5
5
5
5
5
5
5
5
5
5
5
5
5
5
5
5
5
5
5
5
5
5
5
5
5
5
5
5
5
5
5
5
5
5
5
5
5
5
5
5
5
5
5
5
5
5
5
5
5
5
5
5
5
5
5
5
5
5
5
5
5
5
5
5
5
5
5
5
5
5
5
5
5
5
5
5
5
5
5
5
5
5
5
5
5
5
5
5
5
5
5
5
5
5
5
5
5
5
5
5
5
5
5
5
5
5
5
5
5
5
5
5
5
5
5
5
5
5
5
5
5
5
5
5
5
5
5
5
5
5
5
5
5
5
5
5
5
5
5
5
5
5
5
5
5
5
5
5
5
5
5
5
5
5
5
5
5
5
5
5
5
5
5
5
5
5
5
5
5
5
5
5
5
5
5
5
5
5
5
5
5
5
5
5
5
5
5
5
5
5
5
5
5
5
5
5
5
5
5
5
5
5
5
5
5
5
5
5
5
5
5
5
5
5
5
5
5
5
5
5
5
5
5
5
5
5
5
5
5
5
5
5
5
5
5
5
5
5
5
5
5
5
5
5
5
5
5
5
5
5
5
5
5
5
5
5
5
5
5
5
5
5
5
5
5
5
5
5
5
5
5
5
5
5
5
5
5
5
5
5
5
5
5
5
5
5
5
5
5
5
5
5
5
5
5
5
5
5
5
5
5
5
5
5
5
5
5
5
5
5
5
5
5
5
5
5
5
5
5
5
5
5
5
5
5
5
5
5
5
5
5
5
5
5
5
5
5
5
5
5
5
5
5
5
5
5
5
5
5
5
5
5
5
5
5
5
5
5
5
5
5
5
5
5
5
5
5
5
5
5
5
5
5
5
5
5
5
5
5
5
5
5
5
5
5
5
5
5
5
5
5
5
5
5
5
5
5
5
5
5
5
5
5
5
5
5
5
5
5
5
5
5
5
5
5
5
5
5
5
5
5
5
5
5
5
5
5
5
5
5
5
5
5
5
5
5
5
5
5
5
5
5
5
5
5
5
5
5
5
5
5
5
5
5
5
5
5
5
5
5
5
5
5
5
5
5
5
5
5
5
5
5
5
5
5
5
5
5
5
5
5
5
5
5
5
5
5
5
5
5
5
5
5
5
5
5
5
5
5
5
5
5
5
5
5
5
5
5
5
5
5
5
5
5
5
5
5
5
5
5
5
5
5
5
5
5
5
5
5
5
5
5
5
5
5
5
5
5
5
5
5
5
5
5
5
5
5
5
5
5
5
5
5
5
5
5
5
5
5
5
5
5
5
5
5
5
5
5
5
5
5
5
5
5
5
5
5
5
5
5
5
5
5
5
5
5
5
5
5
5
5
5
5
5
5
5
5
5
5
5
5
5
5
5

CELL_DATA 640
SCALARS CellEntityIds int 1
LOOKUP_TABLE default
1
1
1
1
1
1
1
1
1
1
1
1
1
1
1
1
1
1
1
1
1
1
1
1
1
1
1
1
1
1
1
1
1
1
1
1
1
1
1
1
1
1
1
1
1
1
1
1
1
1
1
1
1
1
1
1
1
1
1
1
1
1
1
1
1
1
1
1
1
1
1
1
1
1
1
1
1
1
1
1
1
1
1
1
1
1
1
1
1
1
1
1
1
1
1
1
1
1
1
1
1
1
1
1
1
1
1
1
1
1
1
1
1
1
1
1
1
1
1
1
1
1
1
1
1
1
1
1
1
1
1
1
1
1
1
1
1
1
1
1
1
1
1
1
1
1
1
1
1
1
1
1
1
1
1
1
1
1
1
1
1
1
1
1
1
1
1
1
1
1
1
1
1
1
1
1
1
1
1
1
1
1
1
1
1
1
1
1
1
1
1
1
1
1
1
1
1
1
1
1
1
1
1
1
1
1
1
1
1
1
1
1
1
1
1
1
1
1
1
1
1
1
1
1
1
1
1
1
1
1
1
1
1
1
1
1
1
1
1
1
1
1
1
1
1
1
1
1
1
1
1
1
1
1
1
1
1
1
1
1
1
1
1
1
1
1
1
1
1
1
1
1
1
1
1
1
1
1
1
1
1
1
1
1
1
1
1
1
1
1
1
1
1
1
1
1
1
1
1
1
1
1
1
1
1
1
1
1
1
1
1
1
1
1
1
1
1
1
1
1
1
1
1
1
1
1
1
1
1
1
1
1
1
1
1
1
1
1
1
1
1
1
1
1
1
1
1
1
1
1
1
1
1
1
1
1
1
1
1
1
1
1
1
1
1
1
1
1
1
1
1
1
1
1
1
1
1
1
1
1
1
1
1
1
1
1
1
1
1
1
1
1
1
1
1
1
1
1
1
1
1
1
1
1
1
1
1
1
1
1
1
1
1
1
1
1
1
1
1
1
1
1
1
1
1
1
1
1
1
1
1
1
1
1
1
1
1
1
1
1
1
1
1
1
1
1
1
1
1
1
1
1
1
1
1
1
1
1
1
1
1
1
1
1
1
1
1
1
1
1
1
1
1
1
1
1
1
1
1
1
1
1
1
1
1
1
1
1
1
1
1
1
1
1
1
1
1
1
1
1
1
1
1
1
1
1
1
1
1
1
1
1
1
1
1
1
1
1
1
1
1
1
1
1
1
1
1
1
1
1
1
1
1
1
1
1
1
1
1
1
1
1
1
1
1
1
1
1
1
1
1
1
1
1
1
1
1
1
1
1
1
1
1
1
1
1
1
1
1
1
1
1
1
1
1
1
1
1
1
1
1
1
1
1
1
1
1
1
1
1
1
1
1
1
1
1
1
1
1
1
1
1
1
1
1
1
1
1
1
1
1
1
1
1
1
1
1
1
1
1
1
1
1
1
1
1
1
1
1
1
1
1
1
1
1
1
1
1
1
1
