$MeshFormat
4.1 0 8
$EndMeshFormat
$Entities
6 5 1 0
1 0 0 0 0 
2 1 0 0 0 
3 1 1 0 0 
4 0 1 0 0 
10 0.5 0.5 0 0 
11 0.5 0.9 0 0 
1 -9.999999994736442e-08 -1e-07 -1e-07 1.0000001 1e-07 1e-07 0 2 1 -2 
2 0.9999999000000001 -9.999999994736442e-08 -1e-07 1.0000001 1.0000001 1e-07 0 2 2 -3 
3 -9.999999994736442e-08 0.9999999000000001 -1e-07 1.0000001 1.0000001 1e-07 0 2 3 -4 
4 -1e-07 -9.999999994736442e-08 -1e-07 1e-07 1.0000001 1e-07 0 2 4 -1 
12 0.4999999 0.4999999 -1e-07 0.5000000999999999 0.9000001 1e-07 0 2 10 -11 
20 -9.999999994736442e-08 -9.999999994736442e-08 -1e-07 1.0000001 1.0000001 1e-07 1 1 5 1 2 3 4 24 
$EndEntities
$Nodes
12 353 1 353
0 1 0 1
1
0 0 0
0 2 0 1
2
1 0 0
0 3 0 1
3
1 1 0
0 4 0 1
4
0 1 0
0 10 0 1
5
0.5 0.5 0
0 11 0 1
6
0.5 0.9 0
1 1 0 15
7
8
9
10
11
12
13
14
15
16
17
18
19
20
21
0.06249999999999992 0 0
0.1249999999999998 0 0
0.1874999999999998 0 0
0.2499999999999998 0 0
0.3124999999999996 0 0
0.3749999999999994 0 0
0.4374999999999991 0 0
0.4999999999999988 0 0
0.5624999999999988 0 0
0.6249999999999988 0 0
0.687499999999999 0 0
0.7499999999999991 0 0
0.8124999999999993 0 0
0.8749999999999994 0 0
0.9374999999999997 0 0
1 2 0 15
22
23
24
25
26
27
28
29
30
31
32
33
34
35
36
1 0.06249999999999992 0
1 0.1249999999999998 0
1 0.1874999999999998 0
1 0.2499999999999998 0
1 0.3124999999999996 0
1 0.3749999999999994 0
1 0.4374999999999991 0
1 0.4999999999999988 0
1 0.5624999999999988 0
1 0.6249999999999988 0
1 0.687499999999999 0
1 0.7499999999999991 0
1 0.8124999999999993 0
1 0.8749999999999994 0
1 0.9374999999999997 0
1 3 0 15
37
38
39
40
41
42
43
44
45
46
47
48
49
50
51
0.9375000000000001 1 0
0.8750000000000001 1 0
0.8125000000000002 1 0
0.7500000000000002 1 0
0.6875000000000004 1 0
0.6250000000000007 1 0
0.5625000000000009 1 0
0.5000000000000011 1 0
0.4375000000000012 1 0
0.3750000000000012 1 0
0.312500000000001 1 0
0.2500000000000009 1 0
0.1875000000000007 1 0
0.1250000000000006 1 0
0.06250000000000033 1 0
1 4 0 15
52
53
54
55
56
57
58
59
60
61
62
63
64
65
66
0 0.9375000000000001 0
0 0.8750000000000001 0
0 0.8125000000000002 0
0 0.7500000000000002 0
0 0.6875000000000004 0
0 0.6250000000000007 0
0 0.5625000000000009 0
0 0.5000000000000011 0
0 0.4375000000000012 0
0 0.3750000000000012 0
0 0.312500000000001 0
0 0.2500000000000009 0
0 0.1875000000000007 0
0 0.1250000000000006 0
0 0.06250000000000033 0
1 12 0 5
67
68
69
70
71
0.5 0.5666666666666668 0
0.5 0.6333333333333334 0
0.5 0.7000000000000004 0
0.5 0.7666666666666673 0
0.5 0.8333333333333337 0
2 20 0 282
72
73
74
75
76
77
78
79
80
81
82
83
84
85
86
87
88
89
90
91
92
93
94
95
96
97
98
99
100
101
102
103
104
105
106
107
108
109
110
111
112
113
114
115
116
117
118
119
120
121
122
123
124
125
126
127
128
129
130
131
132
133
134
135
136
137
138
139
140
141
142
143
144
145
146
147
148
149
150
151
152
153
154
155
156
157
158
159
160
161
162
163
164
165
166
167
168
169
170
171
172
173
174
175
176
177
178
179
180
181
182
183
184
185
186
187
188
189
190
191
192
193
194
195
196
197
198
199
200
201
202
203
204
205
206
207
208
209
210
211
212
213
214
215
216
217
218
219
220
221
222
223
224
225
226
227
228
229
230
231
232
233
234
235
236
237
238
239
240
241
242
243
244
245
246
247
248
249
250
251
252
253
254
255
256
257
258
259
260
261
262
263
264
265
266
267
268
269
270
271
272
273
274
275
276
277
278
279
280
281
282
283
284
285
286
287
288
289
290
291
292
293
294
295
296
297
298
299
300
301
302
303
304
305
306
307
308
309
310
311
312
313
314
315
316
317
318
319
320
321
322
323
324
325
326
327
328
329
330
331
332
333
334
335
336
337
338
339
340
341
342
343
344
345
346
347
348
349
350
351
352
353
0.9110398293141606 0.3325031776665407 0
0.304135381754004 0.1310421682186559 0
0.1149270721357797 0.5664008572360311 0
0.5624999999999989 0.1051275079804074 0
0.8917468245269454 0.5624999999999988 0
0.1202318884443931 0.3260380622815441 0
0.1928007459554432 0.8954354548646765 0
0.8893189317614371 0.8007179041523015 0
0.6853515303748469 0.8962637135458297 0
0.8074838880327082 0.1055287581561126 0
0.3072536355794362 0.8908748775923462 0
0.250000000000001 0.7872730274187603 0
0.115811419388829 0.7979999252442439 0
0.1907650080009672 0.6812904920298239 0
0.3098660948846107 0.6832349755972692 0
0.2507824081489093 0.5712230080971762 0
0.191334578913157 0.4523215128769469 0
0.3140387281738604 0.4584568431738624 0
0.2581530337812343 0.3495968089215829 0
0.3827025645875021 0.3382123310270225 0
0.2095965354557479 0.2243984888349584 0
0.3865953482831774 0.5698670150100632 0
0.6151067461862878 0.5658596352086799 0
0.6164371104824564 0.4345081091791068 0
0.7212840268252255 0.4999801929582669 0
0.72035109486816 0.6306287698212873 0
0.7200989339507198 0.3694756626836292 0
0.6166955660156597 0.3043642708650287 0
0.735652785551679 0.2260039801380082 0
0.8245245757594268 0.4388128333382364 0
0.6171649183842993 0.6970324086173791 0
0.7378420192799335 0.7751387383870274 0
0.8281653006930966 0.6702716379719016 0
0.687499999999999 0.1082531754730549 0
0.4361058969589999 0.1117926656698547 0
0.5008181168414942 0.2296894661366095 0
0.3649812803689313 0.7829462965952971 0
0.3836226193928566 0.2148558666940807 0
0.1874999999999997 0.1045833439303623 0
0.5054204537262103 0.3758720185698251 0
0.8800250596927199 0.2050183787850279 0
0.8076676884116847 0.8967690008565079 0
0.1000678686826045 0.1871444059659155 0
0.6057655473856753 0.8159507412900993 0
0.08430069990511518 0.68413825490202 0
0.4071571094048269 0.8752652216391212 0
0.6238633105169102 0.1957988198887042 0
0.08560442343686719 0.4375000000000012 0
0.415610842344713 0.6943630106576185 0
0.5943784944820067 0.9101518818974916 0
0.9084936490538901 0.90849364905389 0
0.09150635094611009 0.9084936490538901 0
0.90849364905389 0.09150635094610993 0
0.09079831911229647 0.09079831911229652 0
0.4158693644301488 0.448457934211183 0
0.806057802099224 0.3095743549628449 0
0.4455392773512074 0.9438163054097803 0
0.7972143645345708 0.5604386868179382 0
0.9285388018178635 0.6853855351402471 0
0.3011322032365615 0.2574602689085665 0
0.9254622459201065 0.4417632022009548 0
0.8437544738627141 0.1552735684705703 0
0.8078389226221995 0.215511179461518 0
0.7715683367921936 0.1657663691470603 0
0.5031192852838522 0.3027807423532173 0
0.4440615091568562 0.3570421747984238 0
0.4417603407144982 0.283950898581816 0
0.1891924611128137 0.3378174356015635 0
0.2247438063471957 0.4009591608992649 0
0.1557832336787751 0.3891797875792455 0
0.8484933100865608 0.8487434525044047 0
0.7727548538458091 0.8359538696217677 0
0.8135804755206852 0.7879283212696644 0
0.3831625919901793 0.2765340988605516 0
0.4422203681171755 0.2222726664153452 0
0.8430414308959719 0.2572963668739364 0
0.7708552938254516 0.2677891675504265 0
0.783003659986515 0.7227051881794644 0
0.8587421162272668 0.7354947710621015 0
0.1384695011750121 0.4449107564384741 0
0.1029181559406301 0.3817690311407727 0
0.0579057096944145 0.7739999626221221 0
0.0579057096944145 0.836499962622122 0
0.1649142119500705 0.2752182755582512 0
0.2338747846184911 0.2869976488782706 0
0.711576392775839 0.1671285778055315 0
0.7474919440163537 0.1068909668145838 0
0.4535785547024135 0.8876326108195607 0
0.4535785547024135 0.8209659441528943 0
0.3026337924952828 0.1942512185636113 0
0.2553643693461547 0.2409293788717625 0
0.2568659586048759 0.1777203285268072 0
0.1828547401423445 0.5688119326666036 0
0.2207737080749382 0.6262567500635001 0
0.1528460400683735 0.6238456746329275 0
0.7465096093932657 0.8965163572011688 0
0.7115967748273901 0.8357012259664285 0
0.1036588851674696 0.853246787149067 0
0.04575317547305502 0.8917468245269451 0
0.5610580098709349 0.3401181447174269 0
0.558756841428577 0.2670268685008191 0
0.1985482677278738 0.1644909163826603 0
0.2458176908770018 0.1178127560745091 0
0.5471892472410034 0.9050759409487459 0
0.547189247241004 0.9550759409487458 0
0.5000000000000006 0.95 0
0.1531308255244684 0.509361185056489 0
0.2210584935310331 0.5117722604870616 0
0.5528827736928377 0.7913087039783833 0
0.5528827736928377 0.8579753706450497 0
0.3423774113147091 0.2361580678013236 0
0.3438790005734303 0.1729490174563684 0
0.6096892472410037 0.9550759409487458 0
0.3860691948868791 0.8291057591172092 0
0.4324906401844656 0.7748064816309822 0
0.600072020933841 0.8630513115937954 0
0.1375328539530412 0.682714373465922 0
0.09961388602044746 0.6252695560690255 0
0.2786268177897185 0.945437438796173 0
0.3411268177897188 0.945437438796173 0
0.4432976741415887 0.6016001741716983 0
0.4432976741415887 0.5349335075050317 0
0.2500271907674397 0.8931551662285113 0
0.2214003729777221 0.9477177274323383 0
0.2214003729777221 0.8413542411417184 0
0.2786268177897187 0.8390739525055533 0
0.3572053724921316 0.8830700496157338 0
0.391078554702414 0.9376326108195606 0
0.5585824591921497 0.6651828709753563 0
0.5585824591921497 0.7318495376420233 0
0.2526866535435087 0.4553891780254047 0
0.2824105681613848 0.5148399256355193 0
0.8585488157066923 0.3210387663146927 0
0.8955324445034403 0.2687607782257843 0
0.6688605686538409 0.4672441510686868 0
0.6681953865057566 0.5329199140834734 0
0.6157719283343721 0.5001838721938933 0
0.6455585388802612 0.8561072274179645 0
0.6718037833328044 0.7955447398385633 0
0.7723117548550733 0.4041442480109328 0
0.7729043012923262 0.4693965131482516 0
0.7206914803879727 0.434727927820948 0
0.8126898326138337 0.6153551623949198 0
0.8444805945307581 0.5614693434089685 0
0.859956062610021 0.6163858189859501 0
0.6761741757836693 0.2651841255015184 0
0.7278758597511994 0.2977398214108187 0
0.6683972499831897 0.3369199667743289 0
0.7208175608466927 0.5653044813897772 0
0.6677289205272239 0.5982442025149836 0
0.6682680222165881 0.401991885931368 0
0.7742581977806282 0.6504502038965945 0
0.7290965570740467 0.7028837541041574 0
0.5582185552412282 0.4672540545895534 0
0.5575533730931439 0.5329298176043399 0
0.6775034688321164 0.7360855735022033 0
0.6687580066262296 0.6638305892193332 0
0.5623407136792022 0.2127441430126569 0
0.620279438266285 0.2500815453768664 0
0.5575533730931439 0.5995964842710066 0
0.616566338249058 0.3694361900220677 0
0.4263481933780171 0.9095407635244508 0
0.4102696386756043 0.9719081527048902 0
0.6161358322852936 0.6314460219130296 0
0.2860958809775473 0.4040268260477227 0
0.1101498785634988 0.2565912341237298 0
0.1548322020691762 0.205771447400437 0
0.1589003729777219 0.9477177274323383 0
0.9446594658807186 0.8378589520761505 0
0.9446594658807186 0.7753589520761504 0
0.1532882136948981 0.739645208637034 0
0.2203825040004841 0.7342817597242921 0
0.182905709694415 0.7926364763315021 0
0.9101428131724044 0.623942767570123 0
0.87835205125548 0.6778285865560743 0
0.8412419440163539 0.05276437907805631 0
0.7787419440163537 0.05276437907805631 0
0.06011594422219657 0.2880190311407725 0
0.06011594422219657 0.3505190311407727 0
0.3074906401844661 0.7851096620070287 0
0.3361174579741838 0.8369105870938216 0
0.3204277991843682 0.3439045699743027 0
0.3483706463806813 0.3983345871004424 0
0.7187499999999991 0.05412658773652745 0
0.6562499999999989 0.05412658773652745 0
0.8108694701469988 0.4996257600780873 0
0.8581357001431861 0.5006564166691176 0
0.1543060826721361 0.8467176900544602 0
0.5937499999999988 0.05256375399020369 0
0.5312499999999989 0.05256375399020369 0
0.9555199146570803 0.35375158883327 0
0.9555199146570803 0.2912515888332702 0
0.9458734122634727 0.5937499999999988 0
0.9458734122634727 0.5312499999999988 0
0.3395676908770017 0.065521084109328 0
0.2770676908770019 0.065521084109328 0
0.0574635360678899 0.5332004286180161 0
0.0574635360678899 0.5957004286180159 0
0.4680529484794994 0.05589633283492734 0
0.4055529484794996 0.05589633283492734 0
0.350317038228519 0.5141619290919628 0
0.3186888782160434 0.5705450115536197 0
0.6551757651874237 0.9481318567729149 0
0.7176757651874235 0.9481318567729149 0
0.6249999999999989 0.1066903417267311 0
0.4993029484794994 0.108460086825131 0
0.370120639356502 0.1214174169442553 0
0.3482307215838941 0.6265509953036662 0
0.28032425151676 0.6272289918472227 0
0.5316590584207466 0.1674084870585084 0
0.4684620069002471 0.1707410659032321 0
0.2503155514427889 0.6822627338135465 0
0.2799330474423058 0.7352540015080148 0
0.5027102268631051 0.4379360092849126 0
0.5609287821043333 0.4051900638744659 0
0.4727696386756042 0.9719081527048902 0
0.2187499999999997 0.05229167196518114 0
0.94001252984636 0.2275091893925139 0
0.94001252984636 0.1650091893925139 0
0.7788338442058425 0.948384500428254 0
0.8413338442058425 0.948384500428254 0
0.4098642581759283 0.1633242661819677 0
0.1562499999999998 0.05229167196518114 0
0.8749934108397667 0.4402880177695956 0
0.9086045352235259 0.5021316011004768 0
0.6114652328849873 0.7564915749537393 0
0.05003393434130227 0.2185722029829582 0
0.8152911889293254 0.3741935941505406 0
0.8677822025367937 0.3856580055023885 0
0.1002657477863235 0.5019504286180161 0
0.337423687626771 0.7330906360962832 0
0.7592491956798981 0.5302094398881025 0
0.3419173839120317 0.2978362999677946 0
0.763078368024972 0.339525008823237 0
0.04215034995255762 0.6545691274510103 0
0.4012323563566631 0.5091624746106231 0
0.4579346822150744 0.4742289671055915 0
0.7587827297013654 0.5955337283196127 0
0.6797580480342946 0.2109014000133562 0
0.6556816552584546 0.1520259976808795 0
0.9182510376171336 0.3871331899337477 0
0.04280221171843357 0.4062500000000012 0
0.05003393434130227 0.156072202982958 0
0.04280221171843357 0.4687500000000012 0
0.9089288667896502 0.7430517196462743 0
0.04575317547305502 0.9542468245269451 0
0.1082531754730554 0.9542468245269451 0
0.9542468245269451 0.954246824526945 0
0.9542468245269451 0.8917468245269446 0
0.8917468245269451 0.954246824526945 0
0.954246824526945 0.04575317547305496 0
0.8917468245269446 0.04575317547305496 0
0.954246824526945 0.1082531754730549 0
0.1437839343413021 0.1458638749481389 0
0.9642694009089318 0.7176927675701231 0
0.5931816552584546 0.1504631639345558 0
0.04539915955614826 0.04539915955614826 0
0.04539915955614826 0.1078991595561485 0
0.1078991595561481 0.04539915955614826 0
0.1421535484507767 0.9019645519592833 0
0.9642694009089318 0.655192767570123 0
0.04215034995255762 0.7170691274510101 0
0.1000560596469721 0.7410690900731319 0
0.9627311229600533 0.4708816011004768 0
0.9627311229600533 0.4083816011004771 0
0.4011030953139453 0.6321150128338409 0
0.3627384686146619 0.6887989931274439 0
0.2796426185088979 0.3035285389150748 0
0.3649540463020046 0.4534573886925227 0
0.4578054211723565 0.663848171995476 0
0.3902960613568222 0.7386546536264578 0
0.4578054211723565 0.730514838662143 0
0.4606449090781795 0.412164976390504 0
0.3992859645088254 0.3933351326191027 0
0.6398650124284269 0.9032077977216607 0
0.8580806687327873 0.9026313249551989 0
0.8942593543733049 0.1482623648655689 0
0.8989062904076636 0.8546057766030957 0
0.8579887685432991 0.09851755455111122 0
0.139149159556148 0.0976908315213294 0
0.09543309389745047 0.138971362539106 0
0.4727696386756037 0.9219081527048901 0
$EndNodes
$Elements
1 640 1 640
2 20 2 640
1 81 133 135 
2 133 134 135 
3 133 112 134 
4 135 134 100 
5 107 136 138 
6 136 137 138 
7 136 111 137 
8 138 137 91 
9 77 139 141 
10 139 140 141 
11 139 90 140 
12 141 140 88 
13 79 142 144 
14 142 143 144 
15 142 113 143 
16 144 143 103 
17 91 145 138 
18 145 146 138 
19 145 109 146 
20 138 146 107 
21 112 147 134 
22 147 148 134 
23 147 127 148 
24 134 148 100 
25 103 149 144 
26 149 150 144 
27 149 104 150 
28 144 150 79 
29 88 151 141 
30 151 152 141 
31 151 119 152 
32 141 152 77 
33 55 153 54 
34 153 154 54 
35 153 84 154 
36 54 154 53 
37 77 155 139 
38 155 156 139 
39 155 92 156 
40 139 156 90 
41 100 157 135 
42 157 158 135 
43 157 105 158 
44 135 158 81 
45 6 159 71 
46 159 160 71 
47 159 117 160 
48 71 160 70 
49 73 161 163 
50 161 162 163 
51 161 131 162 
52 163 162 92 
53 74 164 166 
54 164 165 166 
55 164 87 165 
56 166 165 85 
57 103 143 168 
58 143 167 168 
59 143 113 167 
60 168 167 80 
61 84 169 154 
62 169 170 154 
63 169 123 170 
64 154 170 53 
65 99 171 172 
66 171 136 172 
67 171 111 136 
68 172 136 107 
69 92 173 163 
70 173 174 163 
71 173 110 174 
72 163 174 73 
73 6 175 177 
74 175 176 177 
75 175 121 176 
76 177 176 44 
77 74 178 164 
78 178 179 164 
79 178 88 179 
80 164 179 87 
81 70 180 71 
82 180 181 71 
83 180 115 181 
84 71 181 6 
85 109 182 183 
86 182 161 183 
87 182 131 161 
88 183 161 73 
89 44 176 43 
90 176 184 43 
91 176 121 184 
92 43 184 42 
93 70 160 186 
94 160 185 186 
95 160 117 185 
96 186 185 108 
97 115 187 181 
98 187 175 181 
99 187 121 175 
100 181 175 6 
101 85 188 166 
102 188 189 166 
103 188 116 189 
104 166 189 74 
105 48 190 47 
106 190 191 47 
107 190 82 191 
108 47 191 46 
109 68 192 67 
110 192 193 67 
111 192 93 193 
112 67 193 5 
113 78 194 195 
114 194 190 195 
115 194 82 190 
116 195 190 48 
117 78 196 194 
118 196 197 194 
119 196 83 197 
120 194 197 82 
121 82 198 191 
122 198 199 191 
123 198 117 199 
124 191 199 46 
125 68 200 69 
126 200 201 69 
127 200 102 201 
128 69 201 70 
129 88 202 179 
130 202 203 179 
131 202 89 203 
132 179 203 87 
133 72 204 205 
134 204 147 205 
135 204 127 147 
136 205 147 112 
137 95 206 208 
138 206 207 208 
139 206 96 207 
140 208 207 94 
141 80 209 168 
142 209 210 168 
143 209 115 210 
144 168 210 103 
145 98 211 213 
146 211 212 213 
147 211 101 212 
148 213 212 96 
149 104 214 216 
150 214 215 216 
151 214 129 215 
152 216 215 76 
153 99 217 219 
154 217 218 219 
155 217 100 218 
156 219 218 98 
157 96 220 207 
158 220 221 207 
159 220 97 221 
160 207 221 94 
161 95 222 206 
162 222 213 206 
163 222 98 213 
164 206 213 96 
165 97 223 224 
166 223 149 224 
167 223 104 149 
168 224 149 103 
169 5 225 226 
170 225 208 226 
171 225 95 208 
172 226 208 94 
173 97 224 228 
174 224 227 228 
175 224 103 227 
176 228 227 102 
177 107 229 172 
178 229 230 172 
179 229 118 230 
180 172 230 99 
181 5 226 67 
182 226 231 67 
183 226 94 231 
184 67 231 68 
185 95 232 222 
186 232 219 222 
187 232 99 219 
188 222 219 98 
189 117 233 199 
190 233 234 199 
191 233 128 234 
192 199 234 46 
193 94 235 231 
194 235 200 231 
195 235 102 200 
196 231 200 68 
197 88 140 202 
198 140 236 202 
199 140 90 236 
200 202 236 89 
201 77 237 155 
202 237 238 155 
203 237 114 238 
204 155 238 92 
205 97 228 221 
206 228 235 221 
207 228 102 235 
208 221 235 94 
209 50 239 49 
210 239 195 49 
211 239 78 195 
212 49 195 48 
213 35 240 34 
214 240 241 34 
215 240 79 241 
216 34 241 33 
217 84 242 244 
218 242 243 244 
219 242 85 243 
220 244 243 83 
221 76 245 216 
222 245 246 216 
223 245 130 246 
224 216 246 104 
225 20 247 19 
226 247 248 19 
227 247 81 248 
228 19 248 18 
229 63 249 62 
230 249 250 62 
231 249 77 250 
232 62 250 61 
233 83 251 197 
234 251 252 197 
235 251 108 252 
236 197 252 82 
237 90 253 236 
238 253 254 236 
239 253 91 254 
240 236 254 89 
241 18 255 17 
242 255 256 17 
243 255 105 256 
244 17 256 16 
245 76 215 258 
246 215 257 258 
247 215 129 257 
248 258 257 101 
249 78 259 196 
250 259 244 196 
251 259 84 244 
252 196 244 83 
253 16 260 15 
254 260 261 15 
255 260 75 261 
256 15 261 14 
257 27 262 26 
258 262 263 26 
259 262 72 263 
260 26 263 25 
261 31 264 30 
262 264 265 30 
263 264 76 265 
264 30 265 29 
265 12 266 11 
266 266 267 11 
267 266 73 267 
268 11 267 10 
269 59 268 58 
270 268 269 58 
271 268 74 269 
272 58 269 57 
273 14 270 13 
274 270 271 13 
275 270 106 271 
276 13 271 12 
277 81 158 248 
278 158 255 248 
279 158 105 255 
280 248 255 18 
281 89 272 203 
282 272 273 203 
283 272 93 273 
284 203 273 87 
285 42 274 41 
286 274 275 41 
287 274 80 275 
288 41 275 40 
289 16 256 260 
290 256 276 260 
291 256 105 276 
292 260 276 75 
293 75 277 261 
294 277 270 261 
295 277 106 270 
296 261 270 14 
297 12 271 266 
298 271 278 266 
299 271 106 278 
300 266 278 73 
301 87 273 280 
302 273 279 280 
303 273 93 279 
304 280 279 86 
305 75 281 277 
306 281 282 277 
307 281 107 282 
308 277 282 106 
309 85 283 243 
310 283 284 243 
311 283 86 284 
312 243 284 83 
313 5 285 225 
314 285 286 225 
315 285 111 286 
316 225 286 95 
317 46 234 45 
318 234 287 45 
319 234 128 287 
320 45 287 44 
321 73 174 267 
322 174 288 267 
323 174 110 288 
324 267 288 10 
325 25 289 24 
326 289 290 24 
327 289 112 290 
328 24 290 23 
329 40 291 39 
330 291 292 39 
331 291 113 292 
332 39 292 38 
333 107 146 282 
334 146 293 282 
335 146 109 293 
336 282 293 106 
337 106 293 278 
338 293 183 278 
339 293 109 183 
340 278 183 73 
341 10 288 9 
342 288 294 9 
343 288 110 294 
344 9 294 8 
345 101 295 258 
346 295 296 258 
347 295 132 296 
348 258 296 76 
349 103 210 227 
350 210 297 227 
351 210 115 297 
352 227 297 102 
353 85 165 283 
354 165 280 283 
355 165 87 280 
356 283 280 86 
357 63 298 249 
358 298 237 249 
359 298 114 237 
360 249 237 77 
361 101 299 300 
362 299 204 300 
363 299 127 204 
364 300 204 72 
365 74 301 178 
366 301 151 178 
367 301 119 151 
368 178 151 88 
369 95 286 232 
370 286 171 232 
371 286 111 171 
372 232 171 99 
373 86 302 284 
374 302 251 284 
375 302 108 251 
376 284 251 83 
377 101 257 212 
378 257 303 212 
379 257 129 303 
380 212 303 96 
381 91 304 145 
382 304 182 145 
383 304 131 182 
384 145 182 109 
385 98 305 211 
386 305 299 211 
387 305 127 299 
388 211 299 101 
389 74 189 269 
390 189 306 269 
391 189 116 306 
392 269 306 57 
393 93 307 193 
394 307 308 193 
395 307 126 308 
396 193 308 5 
397 72 205 263 
398 205 289 263 
399 205 112 289 
400 263 289 25 
401 97 309 223 
402 309 214 223 
403 309 129 214 
404 223 214 104 
405 100 310 157 
406 310 311 157 
407 310 118 311 
408 157 311 105 
409 72 312 300 
410 312 295 300 
411 312 132 295 
412 300 295 101 
413 80 167 275 
414 167 291 275 
415 167 113 291 
416 275 291 40 
417 77 152 250 
418 152 313 250 
419 152 119 313 
420 250 313 61 
421 65 314 64 
422 314 298 64 
423 314 114 298 
424 64 298 63 
425 59 315 268 
426 315 301 268 
427 315 119 301 
428 268 301 74 
429 104 246 150 
430 246 316 150 
431 246 130 316 
432 150 316 79 
433 4 317 51 
434 317 318 51 
435 317 123 318 
436 51 318 50 
437 3 319 36 
438 319 320 36 
439 319 122 320 
440 36 320 35 
441 38 321 37 
442 321 319 37 
443 321 122 319 
444 37 319 3 
445 53 170 52 
446 170 317 52 
447 170 123 317 
448 52 317 4 
449 2 322 21 
450 322 323 21 
451 322 124 323 
452 21 323 20 
453 23 324 22 
454 324 322 22 
455 324 124 322 
456 22 322 2 
457 92 238 173 
458 238 325 173 
459 238 114 325 
460 173 325 110 
461 79 316 241 
462 316 326 241 
463 316 130 326 
464 241 326 33 
465 75 327 281 
466 327 229 281 
467 327 118 229 
468 281 229 107 
469 1 328 66 
470 328 329 66 
471 328 125 329 
472 66 329 65 
473 8 330 7 
474 330 328 7 
475 330 125 328 
476 7 328 1 
477 78 331 259 
478 331 169 259 
479 331 123 169 
480 259 169 84 
481 31 332 264 
482 332 245 264 
483 332 130 245 
484 264 245 76 
485 55 333 153 
486 333 334 153 
487 333 116 334 
488 153 334 84 
489 76 296 265 
490 296 335 265 
491 296 132 335 
492 265 335 29 
493 27 336 262 
494 336 312 262 
495 336 132 312 
496 262 312 72 
497 102 297 201 
498 297 180 201 
499 297 115 180 
500 201 180 70 
501 93 337 279 
502 337 338 279 
503 337 120 338 
504 279 338 86 
505 90 339 253 
506 339 304 253 
507 339 131 304 
508 253 304 91 
509 89 340 272 
510 340 307 272 
511 340 126 307 
512 272 307 93 
513 68 341 192 
514 341 337 192 
515 341 120 337 
516 192 337 93 
517 108 342 186 
518 342 343 186 
519 342 120 343 
520 186 343 70 
521 99 230 217 
522 230 310 217 
523 230 118 310 
524 217 310 100 
525 5 308 285 
526 308 344 285 
527 308 126 344 
528 285 344 111 
529 92 162 156 
530 162 339 156 
531 162 131 339 
532 156 339 90 
533 57 306 56 
534 306 333 56 
535 306 116 333 
536 56 333 55 
537 61 313 60 
538 313 315 60 
539 313 119 315 
540 60 315 59 
541 84 334 242 
542 334 188 242 
543 334 116 188 
544 242 188 85 
545 108 185 252 
546 185 198 252 
547 185 117 198 
548 252 198 82 
549 105 311 276 
550 311 327 276 
551 311 118 327 
552 276 327 75 
553 70 343 69 
554 343 341 69 
555 343 120 341 
556 69 341 68 
557 111 344 137 
558 344 345 137 
559 344 126 345 
560 137 345 91 
561 42 184 274 
562 184 346 274 
563 184 121 346 
564 274 346 80 
565 113 347 292 
566 347 321 292 
567 347 122 321 
568 292 321 38 
569 112 348 290 
570 348 324 290 
571 348 124 324 
572 290 324 23 
573 35 320 240 
574 320 349 240 
575 320 122 349 
576 240 349 79 
577 50 318 239 
578 318 331 239 
579 318 123 331 
580 239 331 78 
581 96 303 220 
582 303 309 220 
583 303 129 309 
584 220 309 97 
585 20 323 247 
586 323 350 247 
587 323 124 350 
588 247 350 81 
589 100 148 218 
590 148 305 218 
591 148 127 305 
592 218 305 98 
593 86 338 302 
594 338 342 302 
595 338 120 342 
596 302 342 108 
597 33 326 32 
598 326 332 32 
599 326 130 332 
600 32 332 31 
601 91 345 254 
602 345 340 254 
603 345 126 340 
604 254 340 89 
605 29 335 28 
606 335 336 28 
607 335 132 336 
608 28 336 27 
609 110 351 294 
610 351 330 294 
611 351 125 330 
612 294 330 8 
613 79 349 142 
614 349 347 142 
615 349 122 347 
616 142 347 113 
617 114 352 325 
618 352 351 325 
619 352 125 351 
620 325 351 110 
621 81 350 133 
622 350 348 133 
623 350 124 348 
624 133 348 112 
625 44 287 177 
626 287 353 177 
627 287 128 353 
628 177 353 6 
629 65 329 314 
630 329 352 314 
631 329 125 352 
632 314 352 114 
633 80 346 209 
634 346 187 209 
635 346 121 187 
636 209 187 115 
637 6 353 159 
638 353 233 159 
639 353 128 233 
640 159 233 117 
$EndElements
